<?xml version="1.0" encoding="UTF-8"?>
<svg xmlns="http://www.w3.org/2000/svg" xmlns:xlink="http://www.w3.org/1999/xlink" width="300px" height="300px" viewBox="0 0 300 300" version="1.1">
<g id="surface1">
<path style="fill:none;stroke-width:1.511822;stroke-linecap:square;stroke-linejoin:miter;stroke:rgb(0%,0%,0%);stroke-opacity:1;stroke-miterlimit:4;" d="M 488.301259 373.168509 C 488.301259 486.86435 396.136111 579.029498 282.447159 579.029498 C 168.751317 579.029498 76.586169 486.86435 76.586169 373.168509 C 76.586169 259.479557 168.751317 167.314409 282.447159 167.314409 C 396.136111 167.314409 488.301259 259.479557 488.301259 373.168509 Z M 488.301259 373.168509 " transform="matrix(0.56696,0,0,0.56696,-32.91735,-46.954243)"/>
<path style="fill:none;stroke-width:2;stroke-linecap:butt;stroke-linejoin:miter;stroke:rgb(0%,0%,0%);stroke-opacity:1;stroke-miterlimit:4;" d="M 297.126599 28.546904 L 297.126599 679.228544 " transform="matrix(0.428571,0,0,0.428571,0,0)"/>
<path style="fill:none;stroke-width:2;stroke-linecap:butt;stroke-linejoin:miter;stroke:rgb(0%,0%,0%);stroke-opacity:1;stroke-miterlimit:4;" d="M 2.296877 384.398822 L 604.607375 384.398822 " transform="matrix(0.428571,0,0,0.428571,0,0)"/>
<path style="fill:none;stroke-width:2;stroke-linecap:butt;stroke-linejoin:miter;stroke:rgb(0%,0%,0%);stroke-opacity:1;stroke-miterlimit:4;" d="M 297.126599 384.398822 L 390.988672 158.101721 " transform="matrix(0.428571,0,0,0.428571,0,0)"/>
<path style="fill-rule:evenodd;fill:rgb(0%,0%,0%);fill-opacity:1;stroke-width:1;stroke-linecap:butt;stroke-linejoin:miter;stroke:rgb(0%,0%,0%);stroke-opacity:1;stroke-miterlimit:4;" d="M 296.55238 6.3711 L 304.3727 35.574254 L 289.060185 35.574254 Z M 296.55238 6.3711 " transform="matrix(0.428571,0,0,0.428571,0,0)"/>
<path style="fill-rule:evenodd;fill:rgb(0%,0%,0%);fill-opacity:1;stroke-width:1;stroke-linecap:butt;stroke-linejoin:miter;stroke:rgb(0%,0%,0%);stroke-opacity:1;stroke-miterlimit:4;" d="M 632.68032 385.246479 L 603.486281 393.066799 L 603.486281 377.763399 Z M 632.68032 385.246479 " transform="matrix(0.428571,0,0,0.428571,0,0)"/>
<path style=" stroke:none;fill-rule:nonzero;fill:rgb(0%,0%,0%);fill-opacity:1;" d="M 115.128906 175.144531 C 115.128906 173.925781 115.304688 172.882812 115.667969 172.003906 C 116.027344 171.128906 116.511719 170.480469 117.121094 170.058594 C 117.589844 169.71875 118.070312 169.542969 118.574219 169.542969 C 119.382812 169.542969 120.113281 169.957031 120.753906 170.785156 C 121.566406 171.816406 121.972656 173.214844 121.972656 174.980469 C 121.972656 176.199219 121.792969 177.242188 121.433594 178.097656 C 121.089844 178.957031 120.636719 179.585938 120.074219 179.972656 C 119.523438 180.363281 119.003906 180.558594 118.503906 180.558594 C 117.488281 180.558594 116.644531 179.964844 115.972656 178.777344 C 115.410156 177.761719 115.128906 176.550781 115.128906 175.144531 Z M 116.652344 175.332031 C 116.652344 176.785156 116.832031 177.972656 117.191406 178.894531 C 117.488281 179.679688 117.929688 180.066406 118.527344 180.066406 C 118.808594 180.066406 119.097656 179.941406 119.394531 179.691406 C 119.691406 179.445312 119.917969 179.023438 120.074219 178.425781 C 120.320312 177.523438 120.449219 176.257812 120.449219 174.628906 C 120.449219 173.425781 120.320312 172.417969 120.074219 171.605469 C 119.886719 170.996094 119.644531 170.566406 119.347656 170.316406 C 119.128906 170.144531 118.867188 170.058594 118.574219 170.058594 C 118.210938 170.058594 117.894531 170.222656 117.613281 170.550781 C 117.238281 170.972656 116.980469 171.652344 116.839844 172.589844 C 116.710938 173.515625 116.652344 174.429688 116.652344 175.332031 Z M 116.652344 175.332031 "/>
<path style=" stroke:none;fill-rule:nonzero;fill:rgb(0%,0%,0%);fill-opacity:1;" d="M 138.308594 177.703125 C 138.105469 178.640625 137.722656 179.367188 137.160156 179.882812 C 136.597656 180.386719 135.980469 180.632812 135.308594 180.632812 C 134.496094 180.632812 133.785156 180.300781 133.175781 179.625 C 132.566406 178.941406 132.261719 178.019531 132.261719 176.859375 C 132.261719 175.734375 132.597656 174.820312 133.269531 174.117188 C 133.9375 173.414062 134.746094 173.0625 135.683594 173.0625 C 136.386719 173.0625 136.964844 173.25 137.417969 173.625 C 137.871094 173.988281 138.097656 174.371094 138.097656 174.773438 C 138.097656 174.980469 138.035156 175.144531 137.910156 175.265625 C 137.78125 175.378906 137.605469 175.429688 137.371094 175.429688 C 137.058594 175.429688 136.824219 175.335938 136.667969 175.148438 C 136.589844 175.042969 136.535156 174.832031 136.503906 174.515625 C 136.46875 174.207031 136.363281 173.972656 136.175781 173.8125 C 136 173.660156 135.753906 173.578125 135.425781 173.578125 C 134.910156 173.578125 134.488281 173.777344 134.160156 174.164062 C 133.738281 174.667969 133.527344 175.335938 133.527344 176.179688 C 133.527344 177.042969 133.738281 177.796875 134.160156 178.453125 C 134.582031 179.097656 135.152344 179.414062 135.871094 179.414062 C 136.371094 179.414062 136.824219 179.246094 137.230469 178.898438 C 137.527344 178.664062 137.808594 178.230469 138.074219 177.585938 Z M 138.308594 177.703125 "/>
<path style=" stroke:none;fill-rule:nonzero;fill:rgb(0%,0%,0%);fill-opacity:1;" d="M 142.839844 173.0625 C 143.917969 173.0625 144.785156 173.472656 145.441406 174.28125 C 146.003906 174.984375 146.285156 175.800781 146.285156 176.71875 C 146.285156 177.363281 146.125 178.007812 145.816406 178.664062 C 145.5 179.320312 145.070312 179.8125 144.527344 180.140625 C 143.992188 180.46875 143.402344 180.632812 142.746094 180.632812 C 141.667969 180.632812 140.804688 180.207031 140.167969 179.34375 C 139.632812 178.628906 139.371094 177.816406 139.371094 176.90625 C 139.371094 176.25 139.535156 175.605469 139.863281 174.960938 C 140.191406 174.304688 140.617188 173.832031 141.152344 173.53125 C 141.679688 173.222656 142.242188 173.0625 142.839844 173.0625 Z M 142.582031 173.554688 C 142.3125 173.554688 142.042969 173.644531 141.761719 173.8125 C 141.480469 173.972656 141.25 174.257812 141.082031 174.679688 C 140.90625 175.089844 140.824219 175.613281 140.824219 176.25 C 140.824219 177.300781 141.023438 178.207031 141.433594 178.96875 C 141.855469 179.71875 142.398438 180.09375 143.074219 180.09375 C 143.589844 180.09375 144.011719 179.882812 144.339844 179.460938 C 144.667969 179.039062 144.832031 178.324219 144.832031 177.304688 C 144.832031 176.039062 144.554688 175.042969 144.011719 174.304688 C 143.636719 173.808594 143.15625 173.554688 142.582031 173.554688 Z M 142.582031 173.554688 "/>
<path style=" stroke:none;fill-rule:nonzero;fill:rgb(0%,0%,0%);fill-opacity:1;" d="M 151.96875 173.0625 L 151.96875 175.5 L 151.710938 175.5 C 151.507812 174.738281 151.25 174.210938 150.9375 173.929688 C 150.621094 173.648438 150.234375 173.507812 149.765625 173.507812 C 149.390625 173.507812 149.09375 173.613281 148.875 173.8125 C 148.652344 174 148.546875 174.210938 148.546875 174.445312 C 148.546875 174.746094 148.625 174.996094 148.78125 175.195312 C 148.953125 175.417969 149.28125 175.640625 149.765625 175.875 L 150.914062 176.4375 C 151.976562 176.953125 152.507812 177.632812 152.507812 178.476562 C 152.507812 179.121094 152.257812 179.644531 151.757812 180.046875 C 151.273438 180.433594 150.726562 180.632812 150.117188 180.632812 C 149.679688 180.632812 149.179688 180.550781 148.617188 180.398438 C 148.441406 180.351562 148.300781 180.328125 148.195312 180.328125 C 148.066406 180.328125 147.972656 180.398438 147.914062 180.539062 L 147.65625 180.539062 L 147.65625 177.984375 L 147.914062 177.984375 C 148.054688 178.707031 148.324219 179.25 148.734375 179.625 C 149.15625 180 149.613281 180.1875 150.117188 180.1875 C 150.476562 180.1875 150.761719 180.089844 150.984375 179.882812 C 151.21875 179.667969 151.335938 179.410156 151.335938 179.109375 C 151.335938 178.753906 151.207031 178.449219 150.960938 178.195312 C 150.710938 177.949219 150.199219 177.632812 149.4375 177.257812 C 148.6875 176.882812 148.195312 176.550781 147.960938 176.25 C 147.726562 175.957031 147.609375 175.582031 147.609375 175.125 C 147.609375 174.535156 147.808594 174.042969 148.21875 173.648438 C 148.625 173.261719 149.144531 173.0625 149.789062 173.0625 C 150.070312 173.0625 150.410156 173.121094 150.820312 173.226562 C 151.085938 173.308594 151.253906 173.34375 151.335938 173.34375 C 151.429688 173.34375 151.5 173.332031 151.546875 173.296875 C 151.59375 173.269531 151.648438 173.191406 151.710938 173.0625 Z M 151.96875 173.0625 "/>
<path style=" stroke:none;fill-rule:nonzero;fill:rgb(0%,0%,0%);fill-opacity:1;" d="M 159.886719 183.84375 L 159.089844 183.84375 L 160.027344 180.609375 C 159.277344 180.609375 158.691406 180.386719 158.269531 179.929688 C 157.859375 179.480469 157.660156 178.863281 157.660156 178.078125 C 157.660156 176.878906 158.019531 175.800781 158.761719 174.84375 C 159.511719 173.878906 160.4375 173.378906 161.550781 173.34375 L 161.480469 173.625 C 160.777344 173.753906 160.167969 174.328125 159.652344 175.359375 C 159.136719 176.378906 158.878906 177.375 158.878906 178.359375 C 158.878906 179.550781 159.300781 180.160156 160.144531 180.1875 L 161.199219 176.695312 C 161.460938 175.804688 161.695312 175.144531 161.902344 174.703125 C 162.117188 174.253906 162.378906 173.917969 162.699219 173.695312 C 163.007812 173.460938 163.34375 173.34375 163.707031 173.34375 C 164.203125 173.34375 164.582031 173.566406 164.855469 174 C 165.136719 174.421875 165.277344 174.980469 165.277344 175.664062 C 165.277344 176.929688 164.882812 178.066406 164.105469 179.0625 C 163.316406 180.046875 162.21875 180.5625 160.800781 180.609375 Z M 160.941406 180.1875 C 161.972656 180.128906 162.769531 179.589844 163.332031 178.570312 C 163.90625 177.558594 164.199219 176.519531 164.199219 175.453125 C 164.199219 174.5625 163.96875 174.117188 163.519531 174.117188 C 163.238281 174.117188 162.984375 174.28125 162.769531 174.609375 C 162.546875 174.9375 162.265625 175.699219 161.925781 176.882812 Z M 160.941406 180.1875 "/>
<path style=" stroke:none;fill-rule:nonzero;fill:rgb(0%,0%,0%);fill-opacity:1;" d="M 137.949219 163.734375 L 137.152344 163.734375 L 138.089844 160.5 C 137.339844 160.5 136.753906 160.277344 136.332031 159.820312 C 135.921875 159.371094 135.722656 158.753906 135.722656 157.96875 C 135.722656 156.769531 136.082031 155.691406 136.824219 154.734375 C 137.574219 153.769531 138.5 153.269531 139.613281 153.234375 L 139.542969 153.515625 C 138.839844 153.644531 138.230469 154.21875 137.714844 155.25 C 137.199219 156.269531 136.941406 157.265625 136.941406 158.25 C 136.941406 159.441406 137.363281 160.050781 138.207031 160.078125 L 139.261719 156.585938 C 139.523438 155.695312 139.757812 155.035156 139.964844 154.59375 C 140.179688 154.144531 140.441406 153.808594 140.761719 153.585938 C 141.070312 153.351562 141.40625 153.234375 141.769531 153.234375 C 142.265625 153.234375 142.644531 153.457031 142.917969 153.890625 C 143.199219 154.3125 143.339844 154.871094 143.339844 155.554688 C 143.339844 156.820312 142.945312 157.957031 142.167969 158.953125 C 141.378906 159.9375 140.28125 160.453125 138.863281 160.5 Z M 139.003906 160.078125 C 140.035156 160.019531 140.832031 159.480469 141.394531 158.460938 C 141.96875 157.449219 142.261719 156.410156 142.261719 155.34375 C 142.261719 154.453125 142.03125 154.007812 141.582031 154.007812 C 141.300781 154.007812 141.046875 154.171875 140.832031 154.5 C 140.609375 154.828125 140.328125 155.589844 139.988281 156.773438 Z M 139.003906 160.078125 "/>
<path style=" stroke:none;fill-rule:nonzero;fill:rgb(0%,0%,0%);fill-opacity:1;" d="M 176.425781 45.5625 C 176.40625 46.628906 176.664062 47.457031 177.199219 48.046875 C 177.714844 48.65625 178.324219 48.960938 179.027344 48.960938 C 179.496094 48.960938 179.898438 48.839844 180.246094 48.585938 C 180.585938 48.324219 180.878906 47.878906 181.113281 47.25 L 181.371094 47.414062 C 181.257812 48.117188 180.9375 48.769531 180.410156 49.359375 C 179.875 49.941406 179.21875 50.226562 178.441406 50.226562 C 177.578125 50.226562 176.835938 49.898438 176.214844 49.242188 C 175.605469 48.574219 175.300781 47.667969 175.300781 46.523438 C 175.300781 45.304688 175.609375 44.355469 176.238281 43.664062 C 176.875 42.980469 177.667969 42.632812 178.605469 42.632812 C 179.414062 42.632812 180.082031 42.902344 180.597656 43.429688 C 181.113281 43.964844 181.371094 44.671875 181.371094 45.5625 Z M 176.425781 45.09375 L 179.730469 45.09375 C 179.695312 44.644531 179.640625 44.320312 179.566406 44.132812 C 179.4375 43.839844 179.242188 43.613281 178.980469 43.453125 C 178.726562 43.285156 178.464844 43.195312 178.183594 43.195312 C 177.742188 43.195312 177.351562 43.371094 177.011719 43.710938 C 176.664062 44.039062 176.472656 44.503906 176.425781 45.09375 Z M 176.425781 45.09375 "/>
<path style=" stroke:none;fill-rule:nonzero;fill:rgb(0%,0%,0%);fill-opacity:1;" d="M 184.503906 34.046875 C 184.65625 34.046875 184.792969 34.109375 184.902344 34.234375 C 185.027344 34.34375 185.089844 34.480469 185.089844 34.632812 C 185.089844 34.808594 185.027344 34.953125 184.902344 35.078125 C 184.792969 35.1875 184.65625 35.242188 184.503906 35.242188 C 184.328125 35.242188 184.183594 35.1875 184.058594 35.078125 C 183.949219 34.953125 183.894531 34.808594 183.894531 34.632812 C 183.894531 34.480469 183.949219 34.34375 184.058594 34.234375 C 184.183594 34.109375 184.328125 34.046875 184.503906 34.046875 Z M 184.996094 36.90625 L 184.996094 41.289062 C 184.996094 41.632812 185.019531 41.867188 185.066406 41.992188 C 185.113281 42.101562 185.183594 42.191406 185.277344 42.25 C 185.386719 42.296875 185.566406 42.320312 185.816406 42.320312 L 185.816406 42.53125 L 183.167969 42.53125 L 183.167969 42.320312 C 183.433594 42.320312 183.613281 42.296875 183.707031 42.25 C 183.800781 42.191406 183.871094 42.101562 183.917969 41.992188 C 183.980469 41.867188 184.011719 41.632812 184.011719 41.289062 L 184.011719 39.179688 C 184.011719 38.585938 183.988281 38.207031 183.941406 38.03125 C 183.90625 37.90625 183.859375 37.820312 183.800781 37.773438 C 183.753906 37.726562 183.671875 37.703125 183.566406 37.703125 C 183.457031 37.703125 183.324219 37.726562 183.167969 37.773438 L 183.074219 37.5625 L 184.738281 36.90625 Z M 184.996094 36.90625 "/>
<path style=" stroke:none;fill-rule:nonzero;fill:rgb(0%,0%,0%);fill-opacity:1;" d="M 188.277344 45.15625 L 187.667969 45.15625 L 188.371094 42.671875 C 187.792969 42.671875 187.347656 42.5 187.035156 42.15625 C 186.722656 41.816406 186.566406 41.335938 186.566406 40.726562 C 186.566406 39.824219 186.847656 39.003906 187.410156 38.265625 C 187.988281 37.53125 188.699219 37.152344 189.542969 37.117188 L 189.472656 37.351562 C 188.941406 37.433594 188.476562 37.867188 188.089844 38.664062 C 187.699219 39.449219 187.503906 40.210938 187.503906 40.960938 C 187.503906 41.867188 187.820312 42.335938 188.464844 42.367188 L 189.261719 39.695312 C 189.460938 39.007812 189.644531 38.5 189.800781 38.171875 C 189.972656 37.832031 190.175781 37.574219 190.410156 37.398438 C 190.660156 37.210938 190.914062 37.117188 191.183594 37.117188 C 191.570312 37.117188 191.871094 37.28125 192.074219 37.609375 C 192.292969 37.9375 192.402344 38.371094 192.402344 38.898438 C 192.402344 39.871094 192.097656 40.738281 191.488281 41.5 C 190.894531 42.25 190.050781 42.636719 188.957031 42.671875 Z M 189.074219 42.34375 C 189.871094 42.296875 190.480469 41.890625 190.902344 41.125 C 191.335938 40.34375 191.558594 39.546875 191.558594 38.734375 C 191.558594 38.046875 191.382812 37.703125 191.042969 37.703125 C 190.839844 37.703125 190.652344 37.835938 190.480469 38.101562 C 190.304688 38.351562 190.089844 38.933594 189.824219 39.835938 Z M 189.074219 42.34375 "/>
<path style=" stroke:none;fill-rule:nonzero;fill:rgb(0%,0%,0%);fill-opacity:1;" d="M 248.886719 170.480469 L 251.464844 169.214844 L 251.722656 169.214844 L 251.722656 178.167969 C 251.722656 178.765625 251.746094 179.140625 251.792969 179.292969 C 251.839844 179.433594 251.941406 179.542969 252.097656 179.621094 C 252.253906 179.703125 252.574219 179.75 253.058594 179.761719 L 253.058594 180.042969 L 249.074219 180.042969 L 249.074219 179.761719 C 249.574219 179.75 249.894531 179.703125 250.035156 179.621094 C 250.191406 179.542969 250.292969 179.445312 250.339844 179.316406 C 250.398438 179.191406 250.433594 178.8125 250.433594 178.167969 L 250.433594 172.449219 C 250.433594 171.6875 250.410156 171.195312 250.363281 170.972656 C 250.316406 170.800781 250.246094 170.679688 250.152344 170.597656 C 250.058594 170.519531 249.941406 170.480469 249.800781 170.480469 C 249.613281 170.480469 249.347656 170.5625 249.003906 170.714844 Z M 248.886719 170.480469 "/>
<path style=" stroke:none;fill-rule:nonzero;fill:rgb(0%,0%,0%);fill-opacity:1;" d="M 272.894531 184.964844 L 270.058594 184.964844 L 266.472656 180.019531 C 266.203125 180.019531 265.988281 180.019531 265.816406 180.019531 C 265.753906 180.019531 265.683594 180.019531 265.605469 180.019531 C 265.523438 180.019531 265.441406 180.019531 265.347656 180.019531 L 265.347656 183.089844 C 265.347656 183.761719 265.425781 184.179688 265.582031 184.332031 C 265.769531 184.566406 266.0625 184.683594 266.472656 184.683594 L 266.871094 184.683594 L 266.871094 184.964844 L 262.347656 184.964844 L 262.347656 184.683594 L 262.746094 184.683594 C 263.179688 184.683594 263.503906 184.535156 263.707031 184.238281 C 263.8125 184.085938 263.871094 183.699219 263.871094 183.089844 L 263.871094 176.246094 C 263.871094 175.578125 263.789062 175.160156 263.636719 175.003906 C 263.433594 174.769531 263.132812 174.652344 262.746094 174.652344 L 262.347656 174.652344 L 262.347656 174.371094 L 266.191406 174.371094 C 267.316406 174.371094 268.144531 174.457031 268.675781 174.628906 C 269.222656 174.785156 269.683594 175.085938 270.058594 175.519531 C 270.433594 175.957031 270.621094 176.480469 270.621094 177.089844 C 270.621094 177.746094 270.398438 178.320312 269.964844 178.800781 C 269.542969 179.269531 268.886719 179.609375 267.996094 179.808594 L 270.199219 182.855469 C 270.699219 183.546875 271.125 184.003906 271.488281 184.238281 C 271.847656 184.472656 272.316406 184.625 272.894531 184.683594 Z M 265.347656 179.527344 C 265.453125 179.527344 265.542969 179.527344 265.605469 179.527344 C 265.683594 179.527344 265.746094 179.527344 265.792969 179.527344 C 266.808594 179.527344 267.5625 179.308594 268.066406 178.871094 C 268.582031 178.4375 268.839844 177.878906 268.839844 177.207031 C 268.839844 176.539062 268.628906 176 268.207031 175.589844 C 267.796875 175.167969 267.257812 174.957031 266.589844 174.957031 C 266.273438 174.957031 265.863281 175.003906 265.347656 175.097656 Z M 265.347656 179.527344 "/>
<path style=" stroke:none;fill-rule:nonzero;fill:rgb(0%,0%,0%);fill-opacity:1;" d="M 274.457031 180.511719 C 274.441406 181.578125 274.699219 182.402344 275.230469 182.996094 C 275.746094 183.605469 276.355469 183.910156 277.058594 183.910156 C 277.527344 183.910156 277.933594 183.785156 278.277344 183.535156 C 278.617188 183.269531 278.910156 182.824219 279.144531 182.199219 L 279.402344 182.363281 C 279.292969 183.066406 278.96875 183.714844 278.441406 184.308594 C 277.910156 184.886719 277.253906 185.175781 276.472656 185.175781 C 275.613281 185.175781 274.867188 184.847656 274.246094 184.191406 C 273.636719 183.523438 273.332031 182.613281 273.332031 181.472656 C 273.332031 180.253906 273.644531 179.304688 274.269531 178.613281 C 274.910156 177.925781 275.699219 177.582031 276.636719 177.582031 C 277.445312 177.582031 278.113281 177.851562 278.628906 178.378906 C 279.144531 178.910156 279.402344 179.621094 279.402344 180.511719 Z M 274.457031 180.042969 L 277.761719 180.042969 C 277.726562 179.589844 277.675781 179.269531 277.597656 179.082031 C 277.46875 178.789062 277.277344 178.558594 277.011719 178.402344 C 276.761719 178.230469 276.496094 178.144531 276.214844 178.144531 C 275.777344 178.144531 275.382812 178.320312 275.042969 178.660156 C 274.699219 178.988281 274.503906 179.449219 274.457031 180.042969 Z M 274.457031 180.042969 "/>
<path style=" stroke:none;fill-rule:nonzero;fill:rgb(0%,0%,0%);fill-opacity:1;" d="M 108.089844 20.8125 L 108.089844 21.09375 L 103.542969 21.09375 L 103.542969 20.8125 L 103.917969 20.8125 C 104.351562 20.8125 104.671875 20.683594 104.878906 20.414062 C 105 20.261719 105.066406 19.863281 105.066406 19.21875 L 105.066406 12.375 C 105.066406 11.832031 105.023438 11.472656 104.949219 11.296875 C 104.902344 11.175781 104.792969 11.0625 104.644531 10.96875 C 104.410156 10.847656 104.164062 10.78125 103.917969 10.78125 L 103.542969 10.78125 L 103.542969 10.5 L 108.089844 10.5 L 108.089844 10.78125 L 107.691406 10.78125 C 107.269531 10.78125 106.949219 10.910156 106.753906 11.15625 C 106.621094 11.332031 106.566406 11.738281 106.566406 12.375 L 106.566406 19.21875 C 106.566406 19.753906 106.59375 20.105469 106.660156 20.273438 C 106.707031 20.414062 106.808594 20.53125 106.988281 20.625 C 107.203125 20.753906 107.4375 20.8125 107.691406 20.8125 Z M 108.089844 20.8125 "/>
<path style=" stroke:none;fill-rule:nonzero;fill:rgb(0%,0%,0%);fill-opacity:1;" d="M 111.097656 15.257812 C 111.613281 14.730469 111.917969 14.425781 112.011719 14.34375 C 112.246094 14.15625 112.496094 14.011719 112.761719 13.898438 C 113.042969 13.792969 113.3125 13.734375 113.582031 13.734375 C 114.035156 13.734375 114.417969 13.871094 114.730469 14.132812 C 115.058594 14.386719 115.277344 14.761719 115.386719 15.257812 C 115.917969 14.636719 116.371094 14.226562 116.746094 14.039062 C 117.121094 13.839844 117.503906 13.734375 117.894531 13.734375 C 118.269531 13.734375 118.605469 13.839844 118.902344 14.039062 C 119.199219 14.226562 119.433594 14.542969 119.605469 14.976562 C 119.714844 15.277344 119.769531 15.75 119.769531 16.40625 L 119.769531 19.476562 C 119.769531 19.933594 119.808594 20.238281 119.886719 20.390625 C 119.933594 20.519531 120.027344 20.621094 120.167969 20.695312 C 120.308594 20.777344 120.53125 20.8125 120.847656 20.8125 L 120.847656 21.09375 L 117.332031 21.09375 L 117.332031 20.8125 L 117.472656 20.8125 C 117.785156 20.8125 118.027344 20.753906 118.199219 20.625 C 118.308594 20.550781 118.394531 20.414062 118.457031 20.226562 C 118.46875 20.152344 118.480469 19.898438 118.480469 19.476562 L 118.480469 16.40625 C 118.480469 15.816406 118.410156 15.398438 118.269531 15.164062 C 118.066406 14.835938 117.738281 14.671875 117.285156 14.671875 C 117.015625 14.671875 116.746094 14.742188 116.464844 14.882812 C 116.183594 15.011719 115.839844 15.257812 115.433594 15.632812 L 115.433594 19.476562 C 115.433594 19.964844 115.457031 20.269531 115.503906 20.390625 C 115.5625 20.519531 115.675781 20.621094 115.832031 20.695312 C 115.984375 20.777344 116.246094 20.8125 116.605469 20.8125 L 116.605469 21.09375 L 112.996094 21.09375 L 112.996094 20.8125 C 113.386719 20.8125 113.652344 20.765625 113.792969 20.671875 C 113.949219 20.578125 114.058594 20.4375 114.121094 20.25 C 114.136719 20.15625 114.144531 19.898438 114.144531 19.476562 L 114.144531 16.40625 C 114.144531 15.816406 114.058594 15.394531 113.886719 15.140625 C 113.667969 14.8125 113.347656 14.648438 112.925781 14.648438 C 112.644531 14.648438 112.371094 14.71875 112.105469 14.859375 C 111.667969 15.09375 111.332031 15.351562 111.097656 15.632812 L 111.097656 19.476562 C 111.097656 19.945312 111.128906 20.25 111.191406 20.390625 C 111.25 20.53125 111.34375 20.644531 111.472656 20.71875 C 111.613281 20.785156 111.878906 20.8125 112.269531 20.8125 L 112.269531 21.09375 L 108.730469 21.09375 L 108.730469 20.8125 C 109.058594 20.8125 109.28125 20.785156 109.410156 20.71875 C 109.535156 20.644531 109.628906 20.527344 109.691406 20.367188 C 109.769531 20.214844 109.808594 19.917969 109.808594 19.476562 L 109.808594 16.734375 C 109.808594 15.957031 109.785156 15.445312 109.738281 15.210938 C 109.703125 15.042969 109.652344 14.925781 109.574219 14.859375 C 109.496094 14.800781 109.386719 14.765625 109.246094 14.765625 C 109.105469 14.765625 108.933594 14.808594 108.730469 14.882812 L 108.613281 14.601562 L 110.769531 13.734375 L 111.097656 13.734375 Z M 111.097656 15.257812 "/>
<path style=" stroke:none;fill-rule:nonzero;fill:rgb(0%,0%,0%);fill-opacity:1;" d="M 117.304688 32.199219 C 117.519531 32.199219 117.707031 32.28125 117.867188 32.433594 C 118.019531 32.574219 118.101562 32.753906 118.101562 32.972656 C 118.101562 33.195312 118.019531 33.382812 117.867188 33.535156 C 117.707031 33.691406 117.519531 33.769531 117.304688 33.769531 C 117.082031 33.769531 116.894531 33.691406 116.742188 33.535156 C 116.582031 33.382812 116.507812 33.195312 116.507812 32.972656 C 116.507812 32.753906 116.582031 32.574219 116.742188 32.433594 C 116.894531 32.28125 117.082031 32.199219 117.304688 32.199219 Z M 117.960938 35.949219 L 117.960938 41.691406 C 117.960938 42.148438 117.988281 42.453125 118.054688 42.605469 C 118.113281 42.746094 118.207031 42.855469 118.335938 42.933594 C 118.457031 42.996094 118.691406 43.027344 119.039062 43.027344 L 119.039062 43.308594 L 115.570312 43.308594 L 115.570312 43.027344 C 115.910156 43.027344 116.136719 42.996094 116.25 42.933594 C 116.371094 42.855469 116.464844 42.738281 116.53125 42.582031 C 116.605469 42.429688 116.648438 42.128906 116.648438 41.691406 L 116.648438 38.925781 C 116.648438 38.164062 116.625 37.660156 116.578125 37.425781 C 116.542969 37.253906 116.488281 37.136719 116.414062 37.074219 C 116.332031 37.015625 116.226562 36.980469 116.085938 36.980469 C 115.945312 36.980469 115.769531 37.019531 115.570312 37.097656 L 115.453125 36.816406 L 117.609375 35.949219 Z M 117.960938 35.949219 "/>
<path style=" stroke:none;fill-rule:nonzero;fill:rgb(0%,0%,0%);fill-opacity:1;" d="M 181.042969 113.035156 L 181.042969 115.472656 L 180.785156 115.472656 C 180.582031 114.710938 180.324219 114.183594 180.011719 113.902344 C 179.695312 113.621094 179.308594 113.480469 178.839844 113.480469 C 178.464844 113.480469 178.167969 113.585938 177.949219 113.785156 C 177.726562 113.972656 177.621094 114.183594 177.621094 114.417969 C 177.621094 114.714844 177.699219 114.96875 177.855469 115.167969 C 178.027344 115.390625 178.355469 115.613281 178.839844 115.847656 L 179.988281 116.410156 C 181.050781 116.925781 181.582031 117.605469 181.582031 118.449219 C 181.582031 119.09375 181.332031 119.613281 180.832031 120.019531 C 180.347656 120.40625 179.800781 120.605469 179.191406 120.605469 C 178.753906 120.605469 178.253906 120.523438 177.691406 120.371094 C 177.515625 120.324219 177.375 120.300781 177.269531 120.300781 C 177.140625 120.300781 177.046875 120.371094 176.988281 120.511719 L 176.730469 120.511719 L 176.730469 117.957031 L 176.988281 117.957031 C 177.128906 118.675781 177.398438 119.222656 177.808594 119.597656 C 178.230469 119.972656 178.6875 120.160156 179.191406 120.160156 C 179.550781 120.160156 179.835938 120.058594 180.058594 119.855469 C 180.292969 119.636719 180.410156 119.378906 180.410156 119.082031 C 180.410156 118.722656 180.28125 118.417969 180.035156 118.167969 C 179.785156 117.921875 179.273438 117.605469 178.511719 117.230469 C 177.761719 116.855469 177.269531 116.519531 177.035156 116.222656 C 176.800781 115.929688 176.683594 115.554688 176.683594 115.097656 C 176.683594 114.503906 176.882812 114.011719 177.292969 113.621094 C 177.699219 113.234375 178.21875 113.035156 178.863281 113.035156 C 179.144531 113.035156 179.484375 113.09375 179.894531 113.199219 C 180.160156 113.28125 180.328125 113.316406 180.410156 113.316406 C 180.503906 113.316406 180.574219 113.304688 180.621094 113.269531 C 180.667969 113.238281 180.722656 113.164062 180.785156 113.035156 Z M 181.042969 113.035156 "/>
<path style=" stroke:none;fill-rule:nonzero;fill:rgb(0%,0%,0%);fill-opacity:1;" d="M 184.460938 109.285156 C 184.679688 109.285156 184.867188 109.367188 185.023438 109.519531 C 185.175781 109.660156 185.257812 109.839844 185.257812 110.058594 C 185.257812 110.28125 185.175781 110.46875 185.023438 110.621094 C 184.867188 110.777344 184.679688 110.855469 184.460938 110.855469 C 184.238281 110.855469 184.050781 110.777344 183.898438 110.621094 C 183.742188 110.46875 183.664062 110.28125 183.664062 110.058594 C 183.664062 109.839844 183.742188 109.660156 183.898438 109.519531 C 184.050781 109.367188 184.238281 109.285156 184.460938 109.285156 Z M 185.117188 113.035156 L 185.117188 118.777344 C 185.117188 119.234375 185.148438 119.539062 185.210938 119.691406 C 185.269531 119.832031 185.363281 119.941406 185.492188 120.019531 C 185.617188 120.082031 185.851562 120.113281 186.195312 120.113281 L 186.195312 120.394531 L 182.726562 120.394531 L 182.726562 120.113281 C 183.066406 120.113281 183.296875 120.082031 183.40625 120.019531 C 183.53125 119.941406 183.625 119.824219 183.6875 119.667969 C 183.765625 119.515625 183.804688 119.214844 183.804688 118.777344 L 183.804688 116.011719 C 183.804688 115.25 183.78125 114.746094 183.734375 114.511719 C 183.699219 114.339844 183.648438 114.222656 183.570312 114.160156 C 183.488281 114.101562 183.382812 114.066406 183.242188 114.066406 C 183.101562 114.066406 182.925781 114.105469 182.726562 114.183594 L 182.609375 113.902344 L 184.765625 113.035156 Z M 185.117188 113.035156 "/>
<path style=" stroke:none;fill-rule:nonzero;fill:rgb(0%,0%,0%);fill-opacity:1;" d="M 189.167969 114.535156 C 190.011719 113.539062 190.816406 113.035156 191.582031 113.035156 C 191.96875 113.035156 192.308594 113.140625 192.589844 113.339844 C 192.871094 113.527344 193.089844 113.84375 193.246094 114.277344 C 193.371094 114.59375 193.433594 115.074219 193.433594 115.730469 L 193.433594 118.777344 C 193.433594 119.234375 193.464844 119.539062 193.527344 119.691406 C 193.585938 119.832031 193.679688 119.941406 193.808594 120.019531 C 193.933594 120.082031 194.167969 120.113281 194.511719 120.113281 L 194.511719 120.394531 L 190.972656 120.394531 L 190.972656 120.113281 L 191.136719 120.113281 C 191.464844 120.113281 191.6875 120.066406 191.816406 119.972656 C 191.957031 119.867188 192.050781 119.707031 192.097656 119.503906 C 192.128906 119.425781 192.144531 119.1875 192.144531 118.777344 L 192.144531 115.847656 C 192.144531 115.191406 192.058594 114.722656 191.886719 114.441406 C 191.710938 114.148438 191.425781 113.996094 191.019531 113.996094 C 190.410156 113.996094 189.789062 114.335938 189.167969 115.003906 L 189.167969 118.777344 C 189.167969 119.261719 189.199219 119.5625 189.261719 119.667969 C 189.339844 119.824219 189.4375 119.941406 189.566406 120.019531 C 189.691406 120.082031 189.949219 120.113281 190.339844 120.113281 L 190.339844 120.394531 L 186.800781 120.394531 L 186.800781 120.113281 L 186.964844 120.113281 C 187.324219 120.113281 187.5625 120.019531 187.691406 119.832031 C 187.816406 119.644531 187.878906 119.292969 187.878906 118.777344 L 187.878906 116.128906 C 187.878906 115.273438 187.855469 114.746094 187.808594 114.558594 C 187.773438 114.371094 187.722656 114.246094 187.644531 114.183594 C 187.5625 114.105469 187.457031 114.066406 187.316406 114.066406 C 187.175781 114.066406 187 114.105469 186.800781 114.183594 L 186.683594 113.902344 L 188.839844 113.035156 L 189.167969 113.035156 Z M 189.167969 114.535156 "/>
<path style=" stroke:none;fill-rule:nonzero;fill:rgb(0%,0%,0%);fill-opacity:1;" d="M 201.410156 123.816406 L 200.613281 123.816406 L 201.550781 120.582031 C 200.800781 120.582031 200.214844 120.359375 199.792969 119.902344 C 199.382812 119.449219 199.183594 118.835938 199.183594 118.050781 C 199.183594 116.847656 199.546875 115.769531 200.285156 114.816406 C 201.035156 113.847656 201.960938 113.351562 203.074219 113.316406 L 203.003906 113.597656 C 202.300781 113.726562 201.691406 114.300781 201.175781 115.332031 C 200.660156 116.351562 200.402344 117.347656 200.402344 118.332031 C 200.402344 119.519531 200.824219 120.128906 201.667969 120.160156 L 202.722656 116.667969 C 202.988281 115.777344 203.222656 115.113281 203.425781 114.675781 C 203.644531 114.222656 203.90625 113.890625 204.222656 113.667969 C 204.535156 113.433594 204.867188 113.316406 205.230469 113.316406 C 205.730469 113.316406 206.109375 113.539062 206.378906 113.972656 C 206.660156 114.394531 206.800781 114.949219 206.800781 115.636719 C 206.800781 116.902344 206.410156 118.039062 205.628906 119.035156 C 204.84375 120.019531 203.742188 120.535156 202.324219 120.582031 Z M 202.464844 120.160156 C 203.496094 120.101562 204.292969 119.5625 204.855469 118.542969 C 205.429688 117.527344 205.722656 116.492188 205.722656 115.425781 C 205.722656 114.535156 205.496094 114.089844 205.042969 114.089844 C 204.761719 114.089844 204.511719 114.253906 204.292969 114.582031 C 204.070312 114.910156 203.789062 115.671875 203.449219 116.855469 Z M 202.464844 120.160156 "/>
<path style="fill:none;stroke-width:2;stroke-linecap:butt;stroke-linejoin:miter;stroke:rgb(0%,0%,0%);stroke-opacity:1;stroke-miterlimit:4;" d="M 401.470454 132.972789 L 401.470454 385.410542 " transform="matrix(0.428571,0,0,0.428571,0,0)"/>
<path style="fill:none;stroke-width:1.207385;stroke-linecap:square;stroke-linejoin:miter;stroke:rgb(0%,0%,0%);stroke-opacity:1;stroke-miterlimit:4;" d="M 542.902454 325.079041 C 555.480949 329.937663 563.635511 341.426683 563.519961 354.131733 " transform="matrix(0.709917,0,0,0.709917,-249.4899,-86.8182)"/>
<path style="fill-rule:evenodd;fill:rgb(0%,0%,0%);fill-opacity:1;stroke-width:1;stroke-linecap:butt;stroke-linejoin:miter;stroke:rgb(0%,0%,0%);stroke-opacity:1;stroke-miterlimit:4;" d="M 401.433995 133.355602 L 396.95873 163.251465 L 382.922258 157.144688 Z M 401.433995 133.355602 " transform="matrix(0.428571,0,0,0.428571,0,0)"/>
<path style=" stroke:none;fill-rule:nonzero;fill:rgb(0%,0%,0%);fill-opacity:1;" d="M 194.4375 43.125 L 202.875 43.125 L 202.875 43.757812 L 194.4375 43.757812 Z M 194.4375 45.65625 L 202.875 45.65625 L 202.875 46.3125 L 194.4375 46.3125 Z M 194.4375 45.65625 "/>
<path style=" stroke:none;fill-rule:nonzero;fill:rgb(0%,0%,0%);fill-opacity:1;" d="M 213.777344 47.296875 C 213.570312 48.234375 213.191406 48.960938 212.628906 49.476562 C 212.066406 49.980469 211.445312 50.226562 210.777344 50.226562 C 209.960938 50.226562 209.253906 49.894531 208.644531 49.21875 C 208.035156 48.535156 207.730469 47.613281 207.730469 46.453125 C 207.730469 45.328125 208.0625 44.414062 208.738281 43.710938 C 209.40625 43.007812 210.214844 42.65625 211.152344 42.65625 C 211.855469 42.65625 212.429688 42.84375 212.886719 43.21875 C 213.335938 43.582031 213.566406 43.964844 213.566406 44.367188 C 213.566406 44.574219 213.5 44.738281 213.378906 44.859375 C 213.25 44.972656 213.074219 45.023438 212.839844 45.023438 C 212.523438 45.023438 212.289062 44.929688 212.136719 44.742188 C 212.054688 44.636719 212 44.425781 211.972656 44.109375 C 211.9375 43.800781 211.832031 43.566406 211.644531 43.40625 C 211.46875 43.253906 211.222656 43.171875 210.894531 43.171875 C 210.378906 43.171875 209.957031 43.371094 209.628906 43.757812 C 209.207031 44.261719 208.996094 44.929688 208.996094 45.773438 C 208.996094 46.636719 209.207031 47.390625 209.628906 48.046875 C 210.050781 48.691406 210.617188 49.007812 211.339844 49.007812 C 211.835938 49.007812 212.289062 48.839844 212.699219 48.492188 C 212.992188 48.257812 213.273438 47.824219 213.542969 47.179688 Z M 213.777344 47.296875 "/>
<path style=" stroke:none;fill-rule:nonzero;fill:rgb(0%,0%,0%);fill-opacity:1;" d="M 218.304688 42.65625 C 219.382812 42.65625 220.25 43.066406 220.90625 43.875 C 221.46875 44.578125 221.75 45.394531 221.75 46.3125 C 221.75 46.957031 221.589844 47.601562 221.28125 48.257812 C 220.964844 48.914062 220.535156 49.40625 219.992188 49.734375 C 219.457031 50.0625 218.867188 50.226562 218.210938 50.226562 C 217.132812 50.226562 216.269531 49.800781 215.632812 48.9375 C 215.097656 48.222656 214.835938 47.410156 214.835938 46.5 C 214.835938 45.84375 215 45.199219 215.328125 44.554688 C 215.65625 43.898438 216.082031 43.425781 216.617188 43.125 C 217.144531 42.816406 217.707031 42.65625 218.304688 42.65625 Z M 218.046875 43.148438 C 217.777344 43.148438 217.507812 43.238281 217.226562 43.40625 C 216.945312 43.566406 216.714844 43.851562 216.546875 44.273438 C 216.371094 44.683594 216.289062 45.207031 216.289062 45.84375 C 216.289062 46.894531 216.488281 47.800781 216.898438 48.5625 C 217.320312 49.3125 217.863281 49.6875 218.539062 49.6875 C 219.054688 49.6875 219.476562 49.476562 219.804688 49.054688 C 220.132812 48.632812 220.296875 47.917969 220.296875 46.898438 C 220.296875 45.632812 220.019531 44.636719 219.476562 43.898438 C 219.101562 43.402344 218.621094 43.148438 218.046875 43.148438 Z M 218.046875 43.148438 "/>
<path style=" stroke:none;fill-rule:nonzero;fill:rgb(0%,0%,0%);fill-opacity:1;" d="M 227.433594 42.65625 L 227.433594 45.09375 L 227.175781 45.09375 C 226.972656 44.332031 226.714844 43.804688 226.402344 43.523438 C 226.085938 43.242188 225.699219 43.101562 225.230469 43.101562 C 224.855469 43.101562 224.558594 43.207031 224.339844 43.40625 C 224.117188 43.59375 224.011719 43.804688 224.011719 44.039062 C 224.011719 44.339844 224.089844 44.589844 224.246094 44.789062 C 224.417969 45.011719 224.746094 45.234375 225.230469 45.46875 L 226.378906 46.03125 C 227.441406 46.546875 227.972656 47.226562 227.972656 48.070312 C 227.972656 48.714844 227.722656 49.238281 227.222656 49.640625 C 226.738281 50.027344 226.191406 50.226562 225.582031 50.226562 C 225.144531 50.226562 224.644531 50.144531 224.082031 49.992188 C 223.90625 49.945312 223.765625 49.921875 223.660156 49.921875 C 223.53125 49.921875 223.4375 49.992188 223.378906 50.132812 L 223.121094 50.132812 L 223.121094 47.578125 L 223.378906 47.578125 C 223.519531 48.300781 223.789062 48.84375 224.199219 49.21875 C 224.621094 49.59375 225.078125 49.78125 225.582031 49.78125 C 225.941406 49.78125 226.226562 49.683594 226.449219 49.476562 C 226.683594 49.261719 226.800781 49.003906 226.800781 48.703125 C 226.800781 48.347656 226.671875 48.042969 226.425781 47.789062 C 226.175781 47.542969 225.664062 47.226562 224.902344 46.851562 C 224.152344 46.476562 223.660156 46.144531 223.425781 45.84375 C 223.191406 45.550781 223.074219 45.175781 223.074219 44.71875 C 223.074219 44.128906 223.273438 43.636719 223.683594 43.242188 C 224.089844 42.855469 224.609375 42.65625 225.253906 42.65625 C 225.535156 42.65625 225.875 42.714844 226.285156 42.820312 C 226.550781 42.902344 226.71875 42.9375 226.800781 42.9375 C 226.894531 42.9375 226.964844 42.925781 227.011719 42.890625 C 227.058594 42.863281 227.113281 42.785156 227.175781 42.65625 Z M 227.433594 42.65625 "/>
<path style=" stroke:none;fill-rule:nonzero;fill:rgb(0%,0%,0%);fill-opacity:1;" d="M 235.347656 53.4375 L 234.550781 53.4375 L 235.488281 50.203125 C 234.738281 50.203125 234.152344 49.980469 233.730469 49.523438 C 233.320312 49.074219 233.121094 48.457031 233.121094 47.671875 C 233.121094 46.472656 233.484375 45.394531 234.222656 44.4375 C 234.972656 43.472656 235.898438 42.972656 237.011719 42.9375 L 236.941406 43.21875 C 236.238281 43.347656 235.628906 43.921875 235.113281 44.953125 C 234.597656 45.972656 234.339844 46.96875 234.339844 47.953125 C 234.339844 49.144531 234.761719 49.753906 235.605469 49.78125 L 236.660156 46.289062 C 236.925781 45.398438 237.160156 44.738281 237.363281 44.296875 C 237.582031 43.847656 237.84375 43.511719 238.160156 43.289062 C 238.472656 43.054688 238.804688 42.9375 239.167969 42.9375 C 239.667969 42.9375 240.046875 43.160156 240.316406 43.59375 C 240.597656 44.015625 240.738281 44.574219 240.738281 45.257812 C 240.738281 46.523438 240.347656 47.660156 239.566406 48.65625 C 238.78125 49.640625 237.679688 50.15625 236.261719 50.203125 Z M 236.402344 49.78125 C 237.433594 49.722656 238.230469 49.183594 238.792969 48.164062 C 239.367188 47.152344 239.660156 46.113281 239.660156 45.046875 C 239.660156 44.15625 239.433594 43.710938 238.980469 43.710938 C 238.699219 43.710938 238.449219 43.875 238.230469 44.203125 C 238.007812 44.53125 237.726562 45.292969 237.386719 46.476562 Z M 236.402344 49.78125 "/>
<path style=" stroke:none;fill-rule:nonzero;fill:rgb(0%,0%,0%);fill-opacity:1;" d="M 249.570312 48.914062 L 249.570312 45.023438 L 245.679688 45.023438 L 245.679688 44.367188 L 249.570312 44.367188 L 249.570312 40.476562 L 250.203125 40.476562 L 250.203125 44.367188 L 254.117188 44.367188 L 254.117188 45.023438 L 250.203125 45.023438 L 250.203125 48.914062 Z M 249.570312 48.914062 "/>
<path style=" stroke:none;fill-rule:nonzero;fill:rgb(0%,0%,0%);fill-opacity:1;" d="M 260.75 38.90625 C 260.96875 38.90625 261.15625 38.988281 261.3125 39.140625 C 261.464844 39.28125 261.546875 39.464844 261.546875 39.679688 C 261.546875 39.902344 261.464844 40.089844 261.3125 40.242188 C 261.15625 40.402344 260.96875 40.476562 260.75 40.476562 C 260.527344 40.476562 260.339844 40.402344 260.1875 40.242188 C 260.03125 40.089844 259.953125 39.902344 259.953125 39.679688 C 259.953125 39.464844 260.03125 39.28125 260.1875 39.140625 C 260.339844 38.988281 260.527344 38.90625 260.75 38.90625 Z M 261.40625 42.65625 L 261.40625 48.398438 C 261.40625 48.855469 261.4375 49.160156 261.5 49.3125 C 261.558594 49.453125 261.652344 49.566406 261.78125 49.640625 C 261.90625 49.707031 262.140625 49.734375 262.484375 49.734375 L 262.484375 50.015625 L 259.015625 50.015625 L 259.015625 49.734375 C 259.355469 49.734375 259.585938 49.707031 259.695312 49.640625 C 259.820312 49.566406 259.914062 49.449219 259.976562 49.289062 C 260.054688 49.136719 260.09375 48.839844 260.09375 48.398438 L 260.09375 45.632812 C 260.09375 44.871094 260.070312 44.367188 260.023438 44.132812 C 259.988281 43.964844 259.9375 43.847656 259.859375 43.78125 C 259.777344 43.722656 259.671875 43.6875 259.53125 43.6875 C 259.390625 43.6875 259.214844 43.730469 259.015625 43.804688 L 258.898438 43.523438 L 261.054688 42.65625 Z M 261.40625 42.65625 "/>
<path style=" stroke:none;fill-rule:nonzero;fill:rgb(0%,0%,0%);fill-opacity:1;" d="M 272.015625 42.65625 L 272.015625 45.09375 L 271.757812 45.09375 C 271.550781 44.332031 271.292969 43.804688 270.984375 43.523438 C 270.667969 43.242188 270.28125 43.101562 269.8125 43.101562 C 269.4375 43.101562 269.136719 43.207031 268.921875 43.40625 C 268.699219 43.59375 268.59375 43.804688 268.59375 44.039062 C 268.59375 44.339844 268.667969 44.589844 268.828125 44.789062 C 268.996094 45.011719 269.324219 45.234375 269.8125 45.46875 L 270.960938 46.03125 C 272.019531 46.546875 272.554688 47.226562 272.554688 48.070312 C 272.554688 48.714844 272.300781 49.238281 271.804688 49.640625 C 271.316406 50.027344 270.773438 50.226562 270.164062 50.226562 C 269.722656 50.226562 269.226562 50.144531 268.664062 49.992188 C 268.488281 49.945312 268.347656 49.921875 268.242188 49.921875 C 268.113281 49.921875 268.019531 49.992188 267.960938 50.132812 L 267.703125 50.132812 L 267.703125 47.578125 L 267.960938 47.578125 C 268.101562 48.300781 268.371094 48.84375 268.78125 49.21875 C 269.203125 49.59375 269.660156 49.78125 270.164062 49.78125 C 270.519531 49.78125 270.808594 49.683594 271.03125 49.476562 C 271.265625 49.261719 271.382812 49.003906 271.382812 48.703125 C 271.382812 48.347656 271.253906 48.042969 271.007812 47.789062 C 270.753906 47.542969 270.246094 47.226562 269.484375 46.851562 C 268.734375 46.476562 268.242188 46.144531 268.007812 45.84375 C 267.773438 45.550781 267.65625 45.175781 267.65625 44.71875 C 267.65625 44.128906 267.855469 43.636719 268.265625 43.242188 C 268.667969 42.855469 269.191406 42.65625 269.835938 42.65625 C 270.117188 42.65625 270.457031 42.714844 270.867188 42.820312 C 271.128906 42.902344 271.300781 42.9375 271.382812 42.9375 C 271.476562 42.9375 271.546875 42.925781 271.59375 42.890625 C 271.640625 42.863281 271.691406 42.785156 271.757812 42.65625 Z M 272.015625 42.65625 "/>
<path style=" stroke:none;fill-rule:nonzero;fill:rgb(0%,0%,0%);fill-opacity:1;" d="M 275.433594 38.90625 C 275.652344 38.90625 275.839844 38.988281 275.996094 39.140625 C 276.148438 39.28125 276.230469 39.464844 276.230469 39.679688 C 276.230469 39.902344 276.148438 40.089844 275.996094 40.242188 C 275.839844 40.402344 275.652344 40.476562 275.433594 40.476562 C 275.210938 40.476562 275.023438 40.402344 274.871094 40.242188 C 274.714844 40.089844 274.636719 39.902344 274.636719 39.679688 C 274.636719 39.464844 274.714844 39.28125 274.871094 39.140625 C 275.023438 38.988281 275.210938 38.90625 275.433594 38.90625 Z M 276.089844 42.65625 L 276.089844 48.398438 C 276.089844 48.855469 276.121094 49.160156 276.183594 49.3125 C 276.242188 49.453125 276.335938 49.566406 276.464844 49.640625 C 276.589844 49.707031 276.824219 49.734375 277.167969 49.734375 L 277.167969 50.015625 L 273.699219 50.015625 L 273.699219 49.734375 C 274.039062 49.734375 274.269531 49.707031 274.378906 49.640625 C 274.503906 49.566406 274.597656 49.449219 274.660156 49.289062 C 274.738281 49.136719 274.777344 48.839844 274.777344 48.398438 L 274.777344 45.632812 C 274.777344 44.871094 274.753906 44.367188 274.707031 44.132812 C 274.671875 43.964844 274.621094 43.847656 274.542969 43.78125 C 274.460938 43.722656 274.355469 43.6875 274.214844 43.6875 C 274.074219 43.6875 273.898438 43.730469 273.699219 43.804688 L 273.582031 43.523438 L 275.738281 42.65625 Z M 276.089844 42.65625 "/>
<path style=" stroke:none;fill-rule:nonzero;fill:rgb(0%,0%,0%);fill-opacity:1;" d="M 280.140625 44.15625 C 280.984375 43.160156 281.789062 42.65625 282.554688 42.65625 C 282.941406 42.65625 283.28125 42.761719 283.5625 42.960938 C 283.84375 43.148438 284.0625 43.464844 284.21875 43.898438 C 284.34375 44.214844 284.40625 44.695312 284.40625 45.351562 L 284.40625 48.398438 C 284.40625 48.855469 284.4375 49.160156 284.5 49.3125 C 284.558594 49.453125 284.652344 49.566406 284.78125 49.640625 C 284.90625 49.707031 285.140625 49.734375 285.484375 49.734375 L 285.484375 50.015625 L 281.945312 50.015625 L 281.945312 49.734375 L 282.109375 49.734375 C 282.4375 49.734375 282.660156 49.6875 282.789062 49.59375 C 282.929688 49.488281 283.023438 49.332031 283.070312 49.125 C 283.101562 49.050781 283.117188 48.808594 283.117188 48.398438 L 283.117188 45.46875 C 283.117188 44.8125 283.03125 44.34375 282.859375 44.0625 C 282.683594 43.769531 282.398438 43.617188 281.992188 43.617188 C 281.382812 43.617188 280.761719 43.957031 280.140625 44.625 L 280.140625 48.398438 C 280.140625 48.886719 280.171875 49.183594 280.234375 49.289062 C 280.3125 49.449219 280.410156 49.566406 280.539062 49.640625 C 280.664062 49.707031 280.921875 49.734375 281.3125 49.734375 L 281.3125 50.015625 L 277.773438 50.015625 L 277.773438 49.734375 L 277.9375 49.734375 C 278.296875 49.734375 278.535156 49.640625 278.664062 49.453125 C 278.789062 49.265625 278.851562 48.914062 278.851562 48.398438 L 278.851562 45.75 C 278.851562 44.894531 278.828125 44.367188 278.78125 44.179688 C 278.746094 43.992188 278.695312 43.871094 278.617188 43.804688 C 278.535156 43.730469 278.429688 43.6875 278.289062 43.6875 C 278.148438 43.6875 277.972656 43.730469 277.773438 43.804688 L 277.65625 43.523438 L 279.8125 42.65625 L 280.140625 42.65625 Z M 280.140625 44.15625 "/>
<path style=" stroke:none;fill-rule:nonzero;fill:rgb(0%,0%,0%);fill-opacity:1;" d="M 292.382812 53.4375 L 291.585938 53.4375 L 292.523438 50.203125 C 291.773438 50.203125 291.1875 49.980469 290.765625 49.523438 C 290.355469 49.074219 290.15625 48.457031 290.15625 47.671875 C 290.15625 46.472656 290.519531 45.394531 291.257812 44.4375 C 292.007812 43.472656 292.933594 42.972656 294.046875 42.9375 L 293.976562 43.21875 C 293.273438 43.347656 292.664062 43.921875 292.148438 44.953125 C 291.632812 45.972656 291.375 46.96875 291.375 47.953125 C 291.375 49.144531 291.796875 49.753906 292.640625 49.78125 L 293.695312 46.289062 C 293.957031 45.398438 294.191406 44.738281 294.398438 44.296875 C 294.613281 43.847656 294.878906 43.511719 295.195312 43.289062 C 295.503906 43.054688 295.839844 42.9375 296.203125 42.9375 C 296.699219 42.9375 297.082031 43.160156 297.351562 43.59375 C 297.632812 44.015625 297.773438 44.574219 297.773438 45.257812 C 297.773438 46.523438 297.378906 47.660156 296.601562 48.65625 C 295.816406 49.640625 294.714844 50.15625 293.296875 50.203125 Z M 293.4375 49.78125 C 294.46875 49.722656 295.265625 49.183594 295.828125 48.164062 C 296.402344 47.152344 296.695312 46.113281 296.695312 45.046875 C 296.695312 44.15625 296.464844 43.710938 296.015625 43.710938 C 295.734375 43.710938 295.480469 43.875 295.265625 44.203125 C 295.042969 44.53125 294.761719 45.292969 294.421875 46.476562 Z M 293.4375 49.78125 "/>
</g>
</svg>
