<svg version="1.1" xmlns="http://www.w3.org/2000/svg" viewBox="0 0 454 229.50000000000034" width="454" height="229.50000000000034">
  <!-- svg-source:excalidraw -->
  
  <defs>
    <style class="style-fonts">
      @font-face {
        font-family: "Virgil";
        src: url("https://file%2B.vscode-resource.vscode-cdn.net/c%3A/Users/HoShiMin/.vscode-insiders/extensions/pomdtr.excalidraw-editor-3.5.1/public//dist/excalidraw-assets/Virgil.woff2");
      }
      @font-face {
        font-family: "Cascadia";
        src: url("https://file%2B.vscode-resource.vscode-cdn.net/c%3A/Users/HoShiMin/.vscode-insiders/extensions/pomdtr.excalidraw-editor-3.5.1/public//dist/excalidraw-assets/Cascadia.woff2");
      }
    </style>
  </defs>
  <rect x="0" y="0" width="454" height="229.50000000000034" fill="#fff9db"></rect><g stroke-opacity="0.7" fill-opacity="0.7" stroke-linecap="round" transform="translate(13.786513404540983 13.697061218343151) rotate(0 62.95119903216403 23.79891717276837)"><path d="M11.9 0 L114 0 L119.21 0.74 L122.93 2.97 L125.72 9.11 L125.9 35.7 L125.16 40.9 L122.93 44.62 L121.25 45.92 L114 47.6 L11.9 47.6 L6.69 46.85 L4.65 45.92 L1.67 42.95 L0.19 38.49 L0.19 9.11 L1.67 4.65 L4.65 1.67 L11.9 0" stroke="none" stroke-width="0" fill="#ffcccc"></path><path d="M11.9 0 M11.9 0 C51.82 0, 91.74 0, 114 0 M11.9 0 C41.94 0, 71.99 0, 114 0 M114 0 C121.94 0, 125.9 3.97, 125.9 11.9 M114 0 C121.94 0, 125.9 3.97, 125.9 11.9 M125.9 11.9 C125.9 20.26, 125.9 28.62, 125.9 35.7 M125.9 11.9 C125.9 17.17, 125.9 22.43, 125.9 35.7 M125.9 35.7 C125.9 43.63, 121.94 47.6, 114 47.6 M125.9 35.7 C125.9 43.63, 121.94 47.6, 114 47.6 M114 47.6 C90.95 47.6, 67.89 47.6, 11.9 47.6 M114 47.6 C79.6 47.6, 45.2 47.6, 11.9 47.6 M11.9 47.6 C3.97 47.6, 0 43.63, 0 35.7 M11.9 47.6 C3.97 47.6, 0 43.63, 0 35.7 M0 35.7 C0 29.2, 0 22.69, 0 11.9 M0 35.7 C0 29.06, 0 22.42, 0 11.9 M0 11.9 C0 3.97, 3.97 0, 11.9 0 M0 11.9 C0 3.97, 3.97 0, 11.9 0" stroke="#ffcccc" stroke-width="1" fill="none"></path></g><g stroke-opacity="0.7" fill-opacity="0.7" stroke-linecap="round" transform="translate(14.680824491408657 169.82387875729967) rotate(0 36.503189122359174 23.79891717276837)"><path d="M11.9 0 L61.11 0 L68.36 1.67 L71.33 4.65 L72.82 9.11 L73.01 35.7 L71.33 42.95 L70.03 44.62 L66.31 46.85 L61.11 47.6 L11.9 47.6 L4.65 45.92 L1.67 42.95 L0.19 38.49 L0.19 9.11 L1.67 4.65 L4.65 1.67 L11.9 0" stroke="none" stroke-width="0" fill="#ccffcc"></path><path d="M11.9 0 M11.9 0 C26.73 0, 41.57 0, 61.11 0 M11.9 0 C26.58 0, 41.25 0, 61.11 0 M61.11 0 C69.04 0, 73.01 3.97, 73.01 11.9 M61.11 0 C69.04 0, 73.01 3.97, 73.01 11.9 M73.01 11.9 C73.01 20.31, 73.01 28.73, 73.01 35.7 M73.01 11.9 C73.01 16.9, 73.01 21.89, 73.01 35.7 M73.01 35.7 C73.01 43.63, 69.04 47.6, 61.11 47.6 M73.01 35.7 C73.01 43.63, 69.04 47.6, 61.11 47.6 M61.11 47.6 C45.61 47.6, 30.11 47.6, 11.9 47.6 M61.11 47.6 C47.26 47.6, 33.42 47.6, 11.9 47.6 M11.9 47.6 C3.97 47.6, 0 43.63, 0 35.7 M11.9 47.6 C3.97 47.6, 0 43.63, 0 35.7 M0 35.7 C0 30.72, 0 25.74, 0 11.9 M0 35.7 C0 28.21, 0 20.72, 0 11.9 M0 11.9 C0 3.97, 3.97 0, 11.9 0 M0 11.9 C0 3.97, 3.97 0, 11.9 0" stroke="#ccffcc" stroke-width="1" fill="none"></path></g><g stroke-opacity="0.6" fill-opacity="0.6" stroke-linecap="round" transform="translate(11.877555177075806 94.21494365135857) rotate(0 85.61354084992615 23.25917005749443)"><path d="M11.63 0 L159.6 0 L164.69 0.73 L168.32 2.91 L171.05 8.9 L171.23 34.89 L170.5 39.98 L168.32 43.61 L166.68 44.88 L159.6 46.52 L11.63 46.52 L6.54 45.79 L2.91 43.61 L1.64 41.98 L0.18 37.61 L0.18 8.9 L2.91 2.91 L6.54 0.73 L11.63 0" stroke="none" stroke-width="0" fill="#00b0ff"></path><path d="M11.63 0 M11.63 0 C48.84 0, 86.05 0, 159.6 0 M11.63 0 C46.72 0, 81.82 0, 159.6 0 M159.6 0 C167.35 0, 171.23 3.88, 171.23 11.63 M159.6 0 C167.35 0, 171.23 3.88, 171.23 11.63 M171.23 11.63 C171.23 19.58, 171.23 27.53, 171.23 34.89 M171.23 11.63 C171.23 19.94, 171.23 28.25, 171.23 34.89 M171.23 34.89 C171.23 42.64, 167.35 46.52, 159.6 46.52 M171.23 34.89 C171.23 42.64, 167.35 46.52, 159.6 46.52 M159.6 46.52 C112.52 46.52, 65.43 46.52, 11.63 46.52 M159.6 46.52 C102.24 46.52, 44.89 46.52, 11.63 46.52 M11.63 46.52 C3.88 46.52, 0 42.64, 0 34.89 M11.63 46.52 C3.88 46.52, 0 42.64, 0 34.89 M0 34.89 C0 30.02, 0 25.14, 0 11.63 M0 34.89 C0 26.02, 0 17.16, 0 11.63 M0 11.63 C0 3.88, 3.88 0, 11.63 0 M0 11.63 C0 3.88, 3.88 0, 11.63 0" stroke="#00b0ff" stroke-width="1" fill="none"></path></g><g stroke-opacity="0.6" fill-opacity="0.6" stroke-linecap="round" transform="translate(88.58332877094017 170.42584128655312) rotate(0 85.61354084992615 23.259170057494487)"><path d="M11.63 0 L159.6 0 L164.69 0.73 L168.32 2.91 L171.05 8.9 L171.23 34.89 L170.5 39.98 L168.32 43.61 L166.68 44.88 L159.6 46.52 L11.63 46.52 L6.54 45.79 L2.91 43.61 L1.64 41.98 L0.18 37.61 L0.18 8.9 L2.91 2.91 L6.54 0.73 L11.63 0" stroke="none" stroke-width="0" fill="#fab005"></path><path d="M11.63 0 M11.63 0 C48.84 0, 86.05 0, 159.6 0 M11.63 0 C46.72 0, 81.82 0, 159.6 0 M159.6 0 C167.35 0, 171.23 3.88, 171.23 11.63 M159.6 0 C167.35 0, 171.23 3.88, 171.23 11.63 M171.23 11.63 C171.23 19.58, 171.23 27.53, 171.23 34.89 M171.23 11.63 C171.23 19.94, 171.23 28.25, 171.23 34.89 M171.23 34.89 C171.23 42.64, 167.35 46.52, 159.6 46.52 M171.23 34.89 C171.23 42.64, 167.35 46.52, 159.6 46.52 M159.6 46.52 C112.52 46.52, 65.43 46.52, 11.63 46.52 M159.6 46.52 C102.24 46.52, 44.89 46.52, 11.63 46.52 M11.63 46.52 C3.88 46.52, 0 42.64, 0 34.89 M11.63 46.52 C3.88 46.52, 0 42.64, 0 34.89 M0 34.89 C0 30.02, 0 25.14, 0 11.63 M0 34.89 C0 26.02, 0 17.16, 0 11.63 M0 11.63 C0 3.88, 3.88 0, 11.63 0 M0 11.63 C0 3.88, 3.88 0, 11.63 0" stroke="#fab005" stroke-width="1" fill="none"></path></g><g stroke-opacity="0.6" fill-opacity="0.6" stroke-linecap="round" transform="translate(184.69698300837626 93.83563582331658) rotate(0 58.07164234178998 23.79891717276837)"><path d="M11.9 0 L104.24 0 L109.45 0.74 L113.17 2.97 L114.47 4.65 L115.96 9.11 L116.14 35.7 L115.4 40.9 L114.47 42.95 L111.5 45.92 L104.24 47.6 L11.9 47.6 L6.69 46.85 L4.65 45.92 L1.67 42.95 L0.19 38.49 L0.19 9.11 L1.67 4.65 L4.65 1.67 L11.9 0" stroke="none" stroke-width="0" fill="#e64980"></path><path d="M11.9 0 M11.9 0 C41.69 0, 71.48 0, 104.24 0 M11.9 0 C43.61 0, 75.31 0, 104.24 0 M104.24 0 C112.18 0, 116.14 3.97, 116.14 11.9 M104.24 0 C112.18 0, 116.14 3.97, 116.14 11.9 M116.14 11.9 C116.14 18.05, 116.14 24.2, 116.14 35.7 M116.14 11.9 C116.14 21.16, 116.14 30.42, 116.14 35.7 M116.14 35.7 C116.14 43.63, 112.18 47.6, 104.24 47.6 M116.14 35.7 C116.14 43.63, 112.18 47.6, 104.24 47.6 M104.24 47.6 C73.76 47.6, 43.28 47.6, 11.9 47.6 M104.24 47.6 C81.44 47.6, 58.63 47.6, 11.9 47.6 M11.9 47.6 C3.97 47.6, 0 43.63, 0 35.7 M11.9 47.6 C3.97 47.6, 0 43.63, 0 35.7 M0 35.7 C0 28.04, 0 20.39, 0 11.9 M0 35.7 C0 29.76, 0 23.82, 0 11.9 M0 11.9 C0 3.97, 3.97 0, 11.9 0 M0 11.9 C0 3.97, 3.97 0, 11.9 0" stroke="#e64980" stroke-width="1" fill="none"></path></g><g stroke-opacity="0.7" fill-opacity="0.7" stroke-linecap="round" transform="translate(336.63693760633384 170.4887070829285) rotate(0 51.63329809718374 23.79891717276837)"><path d="M11.9 0 L91.37 0 L98.62 1.67 L101.59 4.65 L103.08 9.11 L103.27 35.7 L101.59 42.95 L98.62 45.92 L91.37 47.6 L11.9 47.6 L4.65 45.92 L1.67 42.95 L0.19 38.49 L0.19 9.11 L1.67 4.65 L4.65 1.67 L11.9 0" stroke="none" stroke-width="0" fill="#ccffcc"></path><path d="M11.9 0 M11.9 0 C41.51 0, 71.12 0, 91.37 0 M11.9 0 C41.02 0, 70.13 0, 91.37 0 M91.37 0 C99.3 0, 103.27 3.97, 103.27 11.9 M91.37 0 C99.3 0, 103.27 3.97, 103.27 11.9 M103.27 11.9 C103.27 19.34, 103.27 26.78, 103.27 35.7 M103.27 11.9 C103.27 20.34, 103.27 28.78, 103.27 35.7 M103.27 35.7 C103.27 43.63, 99.3 47.6, 91.37 47.6 M103.27 35.7 C103.27 43.63, 99.3 47.6, 91.37 47.6 M91.37 47.6 C75.36 47.6, 59.36 47.6, 11.9 47.6 M91.37 47.6 C60.36 47.6, 29.35 47.6, 11.9 47.6 M11.9 47.6 C3.97 47.6, 0 43.63, 0 35.7 M11.9 47.6 C3.97 47.6, 0 43.63, 0 35.7 M0 35.7 C0 30.5, 0 25.3, 0 11.9 M0 35.7 C0 26.21, 0 16.72, 0 11.9 M0 11.9 C0 3.97, 3.97 0, 11.9 0 M0 11.9 C0 3.97, 3.97 0, 11.9 0" stroke="#ccffcc" stroke-width="1" fill="none"></path></g><g stroke-opacity="0.6" fill-opacity="0.6" stroke-linecap="round" transform="translate(196.7459320298193 13.932854629811118) rotate(0 85.61354084992615 23.25917005749443)"><path d="M11.63 0 L159.6 0 L164.69 0.73 L168.32 2.91 L171.05 8.9 L171.23 34.89 L170.5 39.98 L168.32 43.61 L166.68 44.88 L159.6 46.52 L11.63 46.52 L6.54 45.79 L2.91 43.61 L1.64 41.98 L0.18 37.61 L0.18 8.9 L2.91 2.91 L6.54 0.73 L11.63 0" stroke="none" stroke-width="0" fill="#ffef00"></path><path d="M11.63 0 M11.63 0 C48.84 0, 86.05 0, 159.6 0 M11.63 0 C46.72 0, 81.82 0, 159.6 0 M159.6 0 C167.35 0, 171.23 3.88, 171.23 11.63 M159.6 0 C167.35 0, 171.23 3.88, 171.23 11.63 M171.23 11.63 C171.23 19.58, 171.23 27.53, 171.23 34.89 M171.23 11.63 C171.23 19.94, 171.23 28.25, 171.23 34.89 M171.23 34.89 C171.23 42.64, 167.35 46.52, 159.6 46.52 M171.23 34.89 C171.23 42.64, 167.35 46.52, 159.6 46.52 M159.6 46.52 C112.52 46.52, 65.43 46.52, 11.63 46.52 M159.6 46.52 C102.24 46.52, 44.89 46.52, 11.63 46.52 M11.63 46.52 C3.88 46.52, 0 42.64, 0 34.89 M11.63 46.52 C3.88 46.52, 0 42.64, 0 34.89 M0 34.89 C0 30.02, 0 25.14, 0 11.63 M0 34.89 C0 26.02, 0 17.16, 0 11.63 M0 11.63 C0 3.88, 3.88 0, 11.63 0 M0 11.63 C0 3.88, 3.88 0, 11.63 0" stroke="#ffef00" stroke-width="1" fill="none"></path></g><g stroke-linecap="round" transform="translate(10.5 12.441938261641326) rotate(0 216.5 25)"><path d="M12.5 0 M12.5 0 C133.57 0, 254.65 0, 420.5 0 M12.5 0 C168.26 0, 324.01 0, 420.5 0 M420.5 0 C428.83 0, 433 4.17, 433 12.5 M420.5 0 C428.83 0, 433 4.17, 433 12.5 M433 12.5 C433 19.35, 433 26.2, 433 37.5 M433 12.5 C433 20.98, 433 29.46, 433 37.5 M433 37.5 C433 45.83, 428.83 50, 420.5 50 M433 37.5 C433 45.83, 428.83 50, 420.5 50 M420.5 50 C326.96 50, 233.43 50, 12.5 50 M420.5 50 C258.07 50, 95.64 50, 12.5 50 M12.5 50 C4.17 50, 0 45.83, 0 37.5 M12.5 50 C4.17 50, 0 45.83, 0 37.5 M0 37.5 C0 30.23, 0 22.97, 0 12.5 M0 37.5 C0 31.58, 0 25.67, 0 12.5 M0 12.5 C0 4.17, 4.17 0, 12.5 0 M0 12.5 C0 4.17, 4.17 0, 12.5 0" stroke="#000000" stroke-width="1" fill="none"></path></g><g stroke-linecap="round"><g transform="translate(61.5 12.441938261641326) rotate(0 -0.5 25)"><path d="M0 0 C-0.17 8.33, -0.83 41.67, -1 50 M0 0 C-0.17 8.33, -0.83 41.67, -1 50" stroke="#000000" stroke-width="1" fill="none"></path></g></g><mask></mask><g stroke-linecap="round"><g transform="translate(111.06213704454365 10) rotate(0 -0.5 25)"><path d="M0 0 C-0.17 8.33, -0.83 41.67, -1 50 M0 0 C-0.17 8.33, -0.83 41.67, -1 50" stroke="#000000" stroke-width="1" fill="none"></path></g></g><mask></mask><g stroke-linecap="round"><g transform="translate(160.06213704454365 13) rotate(0 -0.5 25)"><path d="M0 0 C-0.17 8.33, -0.83 41.67, -1 50 M0 0 C-0.17 8.33, -0.83 41.67, -1 50" stroke="#000000" stroke-width="1" fill="none"></path></g></g><mask></mask><g stroke-linecap="round"><g transform="translate(206.06213704454376 11) rotate(0 -0.5 25)"><path d="M0 0 C-0.17 8.33, -0.83 41.67, -1 50 M0 0 C-0.17 8.33, -0.83 41.67, -1 50" stroke="#000000" stroke-width="1" fill="none"></path></g></g><mask></mask><g stroke-linecap="round"><g transform="translate(254.06213704454365 12) rotate(0 -0.5 25)"><path d="M0 0 C-0.17 8.33, -0.83 41.67, -1 50 M0 0 C-0.17 8.33, -0.83 41.67, -1 50" stroke="#000000" stroke-width="1" fill="none"></path></g></g><mask></mask><g stroke-linecap="round"><g transform="translate(301.06213704454365 11) rotate(0 -0.5 25)"><path d="M0 0 C-0.17 8.33, -0.83 41.67, -1 50 M0 0 C-0.17 8.33, -0.83 41.67, -1 50" stroke="#000000" stroke-width="1" fill="none"></path></g></g><mask></mask><g stroke-linecap="round"><g transform="translate(348.06213704454353 12) rotate(0 -0.5 25)"><path d="M0 0 C-0.17 8.33, -0.83 41.67, -1 50 M0 0 C-0.17 8.33, -0.83 41.67, -1 50" stroke="#000000" stroke-width="1" fill="none"></path></g></g><mask></mask><g stroke-linecap="round"><g transform="translate(395.06213704454365 13) rotate(0 -0.5 25)"><path d="M0 0 C-0.17 8.33, -0.83 41.67, -1 50 M0 0 C-0.17 8.33, -0.83 41.67, -1 50" stroke="#000000" stroke-width="1" fill="none"></path></g></g><mask></mask><g stroke-linecap="round" transform="translate(10 92.94193826164133) rotate(0 216.5 25)"><path d="M12.5 0 M12.5 0 C167.53 0, 322.56 0, 420.5 0 M12.5 0 C123.96 0, 235.43 0, 420.5 0 M420.5 0 C428.83 0, 433 4.17, 433 12.5 M420.5 0 C428.83 0, 433 4.17, 433 12.5 M433 12.5 C433 19.16, 433 25.83, 433 37.5 M433 12.5 C433 20.36, 433 28.22, 433 37.5 M433 37.5 C433 45.83, 428.83 50, 420.5 50 M433 37.5 C433 45.83, 428.83 50, 420.5 50 M420.5 50 C275.87 50, 131.24 50, 12.5 50 M420.5 50 C257.94 50, 95.38 50, 12.5 50 M12.5 50 C4.17 50, 0 45.83, 0 37.5 M12.5 50 C4.17 50, 0 45.83, 0 37.5 M0 37.5 C0 28.77, 0 20.04, 0 12.5 M0 37.5 C0 28.29, 0 19.07, 0 12.5 M0 12.5 C0 4.17, 4.17 0, 12.5 0 M0 12.5 C0 4.17, 4.17 0, 12.5 0" stroke="#000000" stroke-width="1" fill="none"></path></g><g stroke-linecap="round"><g transform="translate(61 92.94193826164133) rotate(0 -0.5 25)"><path d="M0 0 C-0.17 8.33, -0.83 41.67, -1 50 M0 0 C-0.17 8.33, -0.83 41.67, -1 50" stroke="#000000" stroke-width="1" fill="none"></path></g></g><mask></mask><g stroke-linecap="round"><g transform="translate(110.56213704454376 90.50000000000023) rotate(0 -0.5 25)"><path d="M0 0 C-0.17 8.33, -0.83 41.67, -1 50 M0 0 C-0.17 8.33, -0.83 41.67, -1 50" stroke="#000000" stroke-width="1" fill="none"></path></g></g><mask></mask><g stroke-linecap="round"><g transform="translate(159.56213704454376 93.50000000000023) rotate(0 -0.5 25)"><path d="M0 0 C-0.17 8.33, -0.83 41.67, -1 50 M0 0 C-0.17 8.33, -0.83 41.67, -1 50" stroke="#000000" stroke-width="1" fill="none"></path></g></g><mask></mask><g stroke-linecap="round"><g transform="translate(205.56213704454376 91.50000000000023) rotate(0 -0.5 25)"><path d="M0 0 C-0.17 8.33, -0.83 41.67, -1 50 M0 0 C-0.17 8.33, -0.83 41.67, -1 50" stroke="#000000" stroke-width="1" fill="none"></path></g></g><mask></mask><g stroke-linecap="round"><g transform="translate(253.56213704454376 92.50000000000023) rotate(0 -0.5 25)"><path d="M0 0 C-0.17 8.33, -0.83 41.67, -1 50 M0 0 C-0.17 8.33, -0.83 41.67, -1 50" stroke="#000000" stroke-width="1" fill="none"></path></g></g><mask></mask><g stroke-linecap="round"><g transform="translate(300.56213704454376 91.50000000000023) rotate(0 -0.5 25)"><path d="M0 0 C-0.17 8.33, -0.83 41.67, -1 50 M0 0 C-0.17 8.33, -0.83 41.67, -1 50" stroke="#000000" stroke-width="1" fill="none"></path></g></g><mask></mask><g stroke-linecap="round"><g transform="translate(347.56213704454353 92.50000000000023) rotate(0 -0.5 25)"><path d="M0 0 C-0.17 8.33, -0.83 41.67, -1 50 M0 0 C-0.17 8.33, -0.83 41.67, -1 50" stroke="#000000" stroke-width="1" fill="none"></path></g></g><mask></mask><g stroke-linecap="round"><g transform="translate(394.56213704454376 93.50000000000023) rotate(0 -0.5 25)"><path d="M0 0 C-0.17 8.33, -0.83 41.67, -1 50 M0 0 C-0.17 8.33, -0.83 41.67, -1 50" stroke="#000000" stroke-width="1" fill="none"></path></g></g><mask></mask><g stroke-linecap="round" transform="translate(11 168.94193826164167) rotate(0 216.5 25)"><path d="M12.5 0 M12.5 0 C97.68 0, 182.85 0, 420.5 0 M12.5 0 C99.23 0, 185.96 0, 420.5 0 M420.5 0 C428.83 0, 433 4.17, 433 12.5 M420.5 0 C428.83 0, 433 4.17, 433 12.5 M433 12.5 C433 18.12, 433 23.75, 433 37.5 M433 12.5 C433 21.66, 433 30.83, 433 37.5 M433 37.5 C433 45.83, 428.83 50, 420.5 50 M433 37.5 C433 45.83, 428.83 50, 420.5 50 M420.5 50 C319.95 50, 219.41 50, 12.5 50 M420.5 50 C272.18 50, 123.87 50, 12.5 50 M12.5 50 C4.17 50, 0 45.83, 0 37.5 M12.5 50 C4.17 50, 0 45.83, 0 37.5 M0 37.5 C0 28.38, 0 19.26, 0 12.5 M0 37.5 C0 31.19, 0 24.88, 0 12.5 M0 12.5 C0 4.17, 4.17 0, 12.5 0 M0 12.5 C0 4.17, 4.17 0, 12.5 0" stroke="#000000" stroke-width="1" fill="none"></path></g><g stroke-linecap="round"><g transform="translate(62 168.94193826164167) rotate(0 -0.5 25)"><path d="M0 0 C-0.17 8.33, -0.83 41.67, -1 50 M0 0 C-0.17 8.33, -0.83 41.67, -1 50" stroke="#000000" stroke-width="1" fill="none"></path></g></g><mask></mask><g stroke-linecap="round"><g transform="translate(111.56213704454376 166.50000000000034) rotate(0 -0.5 25)"><path d="M0 0 C-0.17 8.33, -0.83 41.67, -1 50 M0 0 C-0.17 8.33, -0.83 41.67, -1 50" stroke="#000000" stroke-width="1" fill="none"></path></g></g><mask></mask><g stroke-linecap="round"><g transform="translate(160.56213704454376 169.50000000000034) rotate(0 -0.5 25)"><path d="M0 0 C-0.17 8.33, -0.83 41.67, -1 50 M0 0 C-0.17 8.33, -0.83 41.67, -1 50" stroke="#000000" stroke-width="1" fill="none"></path></g></g><mask></mask><g stroke-linecap="round"><g transform="translate(206.56213704454376 167.50000000000034) rotate(0 -0.5 25)"><path d="M0 0 C-0.17 8.33, -0.83 41.67, -1 50 M0 0 C-0.17 8.33, -0.83 41.67, -1 50" stroke="#000000" stroke-width="1" fill="none"></path></g></g><mask></mask><g stroke-linecap="round"><g transform="translate(254.56213704454376 168.50000000000034) rotate(0 -0.5 25)"><path d="M0 0 C-0.17 8.33, -0.83 41.67, -1 50 M0 0 C-0.17 8.33, -0.83 41.67, -1 50" stroke="#000000" stroke-width="1" fill="none"></path></g></g><mask></mask><g stroke-linecap="round"><g transform="translate(301.56213704454376 167.50000000000034) rotate(0 -0.5 25)"><path d="M0 0 C-0.17 8.33, -0.83 41.67, -1 50 M0 0 C-0.17 8.33, -0.83 41.67, -1 50" stroke="#000000" stroke-width="1" fill="none"></path></g></g><mask></mask><g stroke-linecap="round"><g transform="translate(348.56213704454353 168.50000000000034) rotate(0 -0.5 25)"><path d="M0 0 C-0.17 8.33, -0.83 41.67, -1 50 M0 0 C-0.17 8.33, -0.83 41.67, -1 50" stroke="#000000" stroke-width="1" fill="none"></path></g></g><mask></mask><g stroke-linecap="round"><g transform="translate(395.56213704454376 169.50000000000034) rotate(0 -0.5 25)"><path d="M0 0 C-0.17 8.33, -0.83 41.67, -1 50 M0 0 C-0.17 8.33, -0.83 41.67, -1 50" stroke="#000000" stroke-width="1" fill="none"></path></g></g><mask></mask><g stroke-linecap="round"><g transform="translate(4.126286094990405 43.29739844507969) rotate(30.273909398350494 20.615439592277653 34.22162972318091)"><path d="M0 0 C6.87 11.41, 34.36 57.04, 41.23 68.44 M0 0 C6.87 11.41, 34.36 57.04, 41.23 68.44" stroke="#364fc7" stroke-width="1" fill="none"></path></g><g transform="translate(4.126286094990405 43.29739844507969) rotate(30.273909398350494 20.615439592277653 34.22162972318091)"><path d="M41.23 68.44 L28.79 60.07 L39.65 53.53 L41.23 68.44" stroke="none" stroke-width="0" fill="#364fc7" fill-rule="evenodd"></path><path d="M41.23 68.44 C36.3 65.12, 31.37 61.81, 28.79 60.07 M41.23 68.44 C36.67 65.37, 32.11 62.3, 28.79 60.07 M28.79 60.07 C31.31 58.55, 33.84 57.03, 39.65 53.53 M28.79 60.07 C32.73 57.69, 36.68 55.31, 39.65 53.53 M39.65 53.53 C40.14 58.17, 40.63 62.82, 41.23 68.44 M39.65 53.53 C40.05 57.29, 40.45 61.05, 41.23 68.44 M41.23 68.44 C41.23 68.44, 41.23 68.44, 41.23 68.44 M41.23 68.44 C41.23 68.44, 41.23 68.44, 41.23 68.44" stroke="#364fc7" stroke-width="1" fill="none"></path></g></g><mask></mask><g stroke-linecap="round"><g transform="translate(5.1544337305250565 123.26424932655925) rotate(30.273909398350494 20.615439592277653 34.22162972318097)"><path d="M0 0 C6.87 11.41, 34.36 57.04, 41.23 68.44 M0 0 C6.87 11.41, 34.36 57.04, 41.23 68.44" stroke="#364fc7" stroke-width="1" fill="none"></path></g><g transform="translate(5.1544337305250565 123.26424932655925) rotate(30.273909398350494 20.615439592277653 34.22162972318097)"><path d="M41.23 68.44 L28.79 60.07 L39.65 53.53 L41.23 68.44" stroke="none" stroke-width="0" fill="#364fc7" fill-rule="evenodd"></path><path d="M41.23 68.44 C37.57 65.98, 33.92 63.52, 28.79 60.07 M41.23 68.44 C36.43 65.21, 31.63 61.98, 28.79 60.07 M28.79 60.07 C31.23 58.6, 33.67 57.13, 39.65 53.53 M28.79 60.07 C31.03 58.72, 33.28 57.37, 39.65 53.53 M39.65 53.53 C40.15 58.31, 40.66 63.09, 41.23 68.44 M39.65 53.53 C40.07 57.54, 40.5 61.55, 41.23 68.44 M41.23 68.44 C41.23 68.44, 41.23 68.44, 41.23 68.44 M41.23 68.44 C41.23 68.44, 41.23 68.44, 41.23 68.44" stroke="#364fc7" stroke-width="1" fill="none"></path></g></g><mask></mask><g stroke-linecap="round"><g transform="translate(27.40104079333969 198.1506308024608) rotate(0 11.58901964029127 -81.44505469426844)"><path d="M0 0 C9.06 -63.68, 18.12 -127.36, 23.18 -162.89" stroke="#364fc7" stroke-width="1.5" fill="none" stroke-dasharray="1.5 7"></path></g></g><mask></mask><g stroke-linecap="round"><g transform="translate(30.737235512798065 43.46627258096248) rotate(30.273909398350494 20.615439592277653 34.22162972318091)"><path d="M0 0 C6.87 11.41, 34.36 57.04, 41.23 68.44 M0 0 C6.87 11.41, 34.36 57.04, 41.23 68.44" stroke="#364fc7" stroke-width="1" fill="none"></path></g><g transform="translate(30.737235512798065 43.46627258096248) rotate(30.273909398350494 20.615439592277653 34.22162972318091)"><path d="M41.23 68.44 L28.79 60.07 L39.65 53.53 L41.23 68.44" stroke="none" stroke-width="0" fill="#364fc7" fill-rule="evenodd"></path><path d="M41.23 68.44 C36.3 65.12, 31.37 61.81, 28.79 60.07 M41.23 68.44 C36.67 65.37, 32.11 62.3, 28.79 60.07 M28.79 60.07 C31.31 58.55, 33.84 57.03, 39.65 53.53 M28.79 60.07 C32.73 57.69, 36.68 55.31, 39.65 53.53 M39.65 53.53 C40.14 58.17, 40.63 62.82, 41.23 68.44 M39.65 53.53 C40.05 57.29, 40.45 61.05, 41.23 68.44 M41.23 68.44 C41.23 68.44, 41.23 68.44, 41.23 68.44 M41.23 68.44 C41.23 68.44, 41.23 68.44, 41.23 68.44" stroke="#364fc7" stroke-width="1" fill="none"></path></g></g><mask></mask><g stroke-linecap="round"><g transform="translate(31.765383148332717 123.43312346244204) rotate(30.273909398350494 20.615439592277653 34.22162972318097)"><path d="M0 0 C6.87 11.41, 34.36 57.04, 41.23 68.44 M0 0 C6.87 11.41, 34.36 57.04, 41.23 68.44" stroke="#364fc7" stroke-width="1" fill="none"></path></g><g transform="translate(31.765383148332717 123.43312346244204) rotate(30.273909398350494 20.615439592277653 34.22162972318097)"><path d="M41.23 68.44 L28.79 60.07 L39.65 53.53 L41.23 68.44" stroke="none" stroke-width="0" fill="#364fc7" fill-rule="evenodd"></path><path d="M41.23 68.44 C37.57 65.98, 33.92 63.52, 28.79 60.07 M41.23 68.44 C36.43 65.21, 31.63 61.98, 28.79 60.07 M28.79 60.07 C31.23 58.6, 33.67 57.13, 39.65 53.53 M28.79 60.07 C31.03 58.72, 33.28 57.37, 39.65 53.53 M39.65 53.53 C40.15 58.31, 40.66 63.09, 41.23 68.44 M39.65 53.53 C40.07 57.54, 40.5 61.55, 41.23 68.44 M41.23 68.44 C41.23 68.44, 41.23 68.44, 41.23 68.44 M41.23 68.44 C41.23 68.44, 41.23 68.44, 41.23 68.44" stroke="#364fc7" stroke-width="1" fill="none"></path></g></g><mask></mask><g stroke-linecap="round"><g transform="translate(53.79825219622501 198.47254801469114) rotate(0 11.58901964029127 -81.44505469426844)"><path d="M0 0 C9.06 -63.68, 18.12 -127.36, 23.18 -162.89" stroke="#364fc7" stroke-width="1.5" fill="none" stroke-dasharray="1.5 7"></path></g></g><mask></mask><g stroke-linecap="round"><g transform="translate(57.56047090136349 44.10219147565476) rotate(30.273909398350494 20.615439592277653 34.22162972318091)"><path d="M0 0 C6.87 11.41, 34.36 57.04, 41.23 68.44 M0 0 C6.87 11.41, 34.36 57.04, 41.23 68.44" stroke="#364fc7" stroke-width="1" fill="none"></path></g><g transform="translate(57.56047090136349 44.10219147565476) rotate(30.273909398350494 20.615439592277653 34.22162972318091)"><path d="M41.23 68.44 L28.79 60.07 L39.65 53.53 L41.23 68.44" stroke="none" stroke-width="0" fill="#364fc7" fill-rule="evenodd"></path><path d="M41.23 68.44 C36.3 65.12, 31.37 61.81, 28.79 60.07 M41.23 68.44 C36.67 65.37, 32.11 62.3, 28.79 60.07 M28.79 60.07 C31.31 58.55, 33.84 57.03, 39.65 53.53 M28.79 60.07 C32.73 57.69, 36.68 55.31, 39.65 53.53 M39.65 53.53 C40.14 58.17, 40.63 62.82, 41.23 68.44 M39.65 53.53 C40.05 57.29, 40.45 61.05, 41.23 68.44 M41.23 68.44 C41.23 68.44, 41.23 68.44, 41.23 68.44 M41.23 68.44 C41.23 68.44, 41.23 68.44, 41.23 68.44" stroke="#364fc7" stroke-width="1" fill="none"></path></g></g><mask></mask><g stroke-linecap="round"><g transform="translate(58.588618536898366 124.06904235713432) rotate(30.273909398350494 20.615439592277653 34.22162972318091)"><path d="M0 0 C6.87 11.41, 34.36 57.04, 41.23 68.44 M0 0 C6.87 11.41, 34.36 57.04, 41.23 68.44" stroke="#364fc7" stroke-width="1" fill="none"></path></g><g transform="translate(58.588618536898366 124.06904235713432) rotate(30.273909398350494 20.615439592277653 34.22162972318091)"><path d="M41.23 68.44 L28.79 60.07 L39.65 53.53 L41.23 68.44" stroke="none" stroke-width="0" fill="#364fc7" fill-rule="evenodd"></path><path d="M41.23 68.44 C37.57 65.98, 33.92 63.52, 28.79 60.07 M41.23 68.44 C36.43 65.21, 31.63 61.98, 28.79 60.07 M28.79 60.07 C31.23 58.6, 33.67 57.13, 39.65 53.53 M28.79 60.07 C31.03 58.72, 33.28 57.37, 39.65 53.53 M39.65 53.53 C40.15 58.31, 40.66 63.09, 41.23 68.44 M39.65 53.53 C40.07 57.54, 40.5 61.55, 41.23 68.44 M41.23 68.44 C41.23 68.44, 41.23 68.44, 41.23 68.44 M41.23 68.44 C41.23 68.44, 41.23 68.44, 41.23 68.44" stroke="#364fc7" stroke-width="1" fill="none"></path></g></g><mask></mask><g stroke-linecap="round"><g transform="translate(80.83522559971289 198.95542383303643) rotate(0 11.58901964029127 -81.44505469426844)"><path d="M0 0 C9.06 -63.68, 18.12 -127.36, 23.18 -162.89" stroke="#364fc7" stroke-width="1.5" fill="none" stroke-dasharray="1.5 7"></path></g></g><mask></mask><g stroke-linecap="round"><g transform="translate(84.17142031917115 44.27106561153755) rotate(30.273909398350494 20.615439592277653 34.22162972318091)"><path d="M0 0 C6.87 11.41, 34.36 57.04, 41.23 68.44 M0 0 C6.87 11.41, 34.36 57.04, 41.23 68.44" stroke="#364fc7" stroke-width="1" fill="none"></path></g><g transform="translate(84.17142031917115 44.27106561153755) rotate(30.273909398350494 20.615439592277653 34.22162972318091)"><path d="M41.23 68.44 L28.79 60.07 L39.65 53.53 L41.23 68.44" stroke="none" stroke-width="0" fill="#364fc7" fill-rule="evenodd"></path><path d="M41.23 68.44 C36.3 65.12, 31.37 61.81, 28.79 60.07 M41.23 68.44 C36.67 65.37, 32.11 62.3, 28.79 60.07 M28.79 60.07 C31.31 58.55, 33.84 57.03, 39.65 53.53 M28.79 60.07 C32.73 57.69, 36.68 55.31, 39.65 53.53 M39.65 53.53 C40.14 58.17, 40.63 62.82, 41.23 68.44 M39.65 53.53 C40.05 57.29, 40.45 61.05, 41.23 68.44 M41.23 68.44 C41.23 68.44, 41.23 68.44, 41.23 68.44 M41.23 68.44 C41.23 68.44, 41.23 68.44, 41.23 68.44" stroke="#364fc7" stroke-width="1" fill="none"></path></g></g><mask></mask><g stroke-linecap="round"><g transform="translate(85.19956795470603 124.23791649301711) rotate(30.273909398350494 20.615439592277653 34.22162972318091)"><path d="M0 0 C6.87 11.41, 34.36 57.04, 41.23 68.44 M0 0 C6.87 11.41, 34.36 57.04, 41.23 68.44" stroke="#364fc7" stroke-width="1" fill="none"></path></g><g transform="translate(85.19956795470603 124.23791649301711) rotate(30.273909398350494 20.615439592277653 34.22162972318091)"><path d="M41.23 68.44 L28.79 60.07 L39.65 53.53 L41.23 68.44" stroke="none" stroke-width="0" fill="#364fc7" fill-rule="evenodd"></path><path d="M41.23 68.44 C37.57 65.98, 33.92 63.52, 28.79 60.07 M41.23 68.44 C36.43 65.21, 31.63 61.98, 28.79 60.07 M28.79 60.07 C31.23 58.6, 33.67 57.13, 39.65 53.53 M28.79 60.07 C31.03 58.72, 33.28 57.37, 39.65 53.53 M39.65 53.53 C40.15 58.31, 40.66 63.09, 41.23 68.44 M39.65 53.53 C40.07 57.54, 40.5 61.55, 41.23 68.44 M41.23 68.44 C41.23 68.44, 41.23 68.44, 41.23 68.44 M41.23 68.44 C41.23 68.44, 41.23 68.44, 41.23 68.44" stroke="#364fc7" stroke-width="1" fill="none"></path></g></g><mask></mask><g stroke-linecap="round"><g transform="translate(107.23243700259832 199.27734104526724) rotate(0 11.58901964029127 -81.44505469426844)"><path d="M0 0 C9.06 -63.68, 18.12 -127.36, 23.18 -162.89" stroke="#364fc7" stroke-width="1.5" fill="none" stroke-dasharray="1.5 7"></path></g></g><mask></mask></svg>