<?xml version="1.0" encoding="UTF-8"?>
<svg xmlns="http://www.w3.org/2000/svg" xmlns:xlink="http://www.w3.org/1999/xlink" width="334px" height="250px" viewBox="0 0 333 250" version="1.1">
<g id="surface1">
<path style="fill:none;stroke-width:1.5;stroke-linecap:butt;stroke-linejoin:miter;stroke:rgb(75.294118%,75.294118%,75.294118%);stroke-opacity:1;stroke-miterlimit:4;" d="M 50.397319 352.59983 L 466.31081 352.59983 " transform="matrix(0.663506,0,0,0.666666,0.623596,0)"/>
<path style="fill:none;stroke-width:1;stroke-linecap:butt;stroke-linejoin:miter;stroke:rgb(0%,0%,0%);stroke-opacity:1;stroke-miterlimit:4;" d="M 466.299035 352.59983 L 466.31081 352.59983 " transform="matrix(0.663506,0,0,0.666666,0.623596,0)"/>
<path style=" stroke:none;fill-rule:nonzero;fill:rgb(0%,0%,0%);fill-opacity:1;" d="M 19.800781 234.359375 C 19.800781 233.226562 19.917969 232.320312 20.148438 231.625 C 20.382812 230.9375 20.726562 230.410156 21.183594 230.042969 C 21.636719 229.667969 22.207031 229.476562 22.898438 229.476562 C 23.40625 229.476562 23.851562 229.585938 24.242188 229.789062 C 24.632812 230 24.949219 230.296875 25.195312 230.6875 C 25.441406 231.070312 25.636719 231.539062 25.78125 232.09375 C 25.921875 232.65625 25.996094 233.414062 25.996094 234.359375 C 25.996094 235.484375 25.878906 236.386719 25.644531 237.074219 C 25.421875 237.769531 25.085938 238.300781 24.632812 238.675781 C 24.175781 239.042969 23.597656 239.222656 22.898438 239.222656 C 21.988281 239.222656 21.265625 238.902344 20.734375 238.246094 C 20.109375 237.457031 19.800781 236.15625 19.800781 234.359375 Z M 21.007812 234.359375 C 21.007812 235.921875 21.1875 236.96875 21.554688 237.484375 C 21.914062 238.007812 22.363281 238.265625 22.898438 238.265625 C 23.429688 238.265625 23.875 238.007812 24.242188 237.484375 C 24.617188 236.96875 24.808594 235.921875 24.808594 234.359375 C 24.808594 232.789062 24.617188 231.742188 24.242188 231.234375 C 23.875 230.71875 23.429688 230.453125 22.898438 230.453125 C 22.351562 230.453125 21.921875 230.683594 21.613281 231.136719 C 21.207031 231.714844 21.007812 232.789062 21.007812 234.359375 Z M 21.007812 234.359375 "/>
<path style="fill:none;stroke-width:1.5;stroke-linecap:butt;stroke-linejoin:miter;stroke:rgb(75.294118%,75.294118%,75.294118%);stroke-opacity:1;stroke-miterlimit:4;" d="M 50.397319 330.597863 L 466.31081 330.597863 " transform="matrix(0.663506,0,0,0.666666,0.623596,0)"/>
<path style="fill:none;stroke-width:1;stroke-linecap:butt;stroke-linejoin:miter;stroke:rgb(0%,0%,0%);stroke-opacity:1;stroke-miterlimit:4;" d="M 466.299035 330.597863 L 466.31081 330.597863 " transform="matrix(0.663506,0,0,0.666666,0.623596,0)"/>
<path style=" stroke:none;fill-rule:nonzero;fill:rgb(0%,0%,0%);fill-opacity:1;" d="M 24.203125 224.398438 L 23.035156 224.398438 L 23.035156 216.917969 C 22.746094 217.191406 22.375 217.464844 21.921875 217.738281 C 21.464844 218.011719 21.054688 218.21875 20.695312 218.34375 L 20.695312 217.210938 C 21.34375 216.898438 21.914062 216.527344 22.410156 216.097656 C 22.902344 215.660156 23.25 215.230469 23.441406 214.808594 L 24.203125 214.808594 Z M 24.203125 224.398438 "/>
<path style="fill:none;stroke-width:1.5;stroke-linecap:butt;stroke-linejoin:miter;stroke:rgb(75.294118%,75.294118%,75.294118%);stroke-opacity:1;stroke-miterlimit:4;" d="M 50.397319 308.595896 L 466.31081 308.595896 " transform="matrix(0.663506,0,0,0.666666,0.623596,0)"/>
<path style="fill:none;stroke-width:1;stroke-linecap:butt;stroke-linejoin:miter;stroke:rgb(0%,0%,0%);stroke-opacity:1;stroke-miterlimit:4;" d="M 466.299035 308.595896 L 466.31081 308.595896 " transform="matrix(0.663506,0,0,0.666666,0.623596,0)"/>
<path style=" stroke:none;fill-rule:nonzero;fill:rgb(0%,0%,0%);fill-opacity:1;" d="M 25.9375 208.597656 L 25.9375 209.730469 L 19.664062 209.730469 C 19.648438 209.449219 19.691406 209.175781 19.800781 208.910156 C 19.953125 208.480469 20.207031 208.0625 20.558594 207.640625 C 20.910156 207.226562 21.417969 206.742188 22.078125 206.195312 C 23.117188 205.351562 23.820312 204.683594 24.183594 204.183594 C 24.542969 203.691406 24.730469 203.21875 24.730469 202.757812 C 24.730469 202.304688 24.558594 201.917969 24.222656 201.605469 C 23.894531 201.285156 23.46875 201.117188 22.9375 201.117188 C 22.375 201.117188 21.929688 201.289062 21.59375 201.625 C 21.25 201.96875 21.074219 202.4375 21.066406 203.03125 L 19.878906 202.894531 C 19.953125 201.996094 20.257812 201.3125 20.792969 200.84375 C 21.339844 200.375 22.058594 200.140625 22.957031 200.140625 C 23.863281 200.140625 24.582031 200.394531 25.121094 200.902344 C 25.648438 201.410156 25.917969 202.046875 25.917969 202.796875 C 25.917969 203.179688 25.839844 203.554688 25.683594 203.929688 C 25.527344 204.296875 25.265625 204.6875 24.90625 205.101562 C 24.554688 205.507812 23.953125 206.058594 23.113281 206.761719 C 22.410156 207.363281 21.960938 207.769531 21.765625 207.972656 C 21.574219 208.183594 21.40625 208.394531 21.28125 208.597656 Z M 25.9375 208.597656 "/>
<path style="fill:none;stroke-width:1.5;stroke-linecap:butt;stroke-linejoin:miter;stroke:rgb(75.294118%,75.294118%,75.294118%);stroke-opacity:1;stroke-miterlimit:4;" d="M 50.397319 286.593929 L 466.31081 286.593929 " transform="matrix(0.663506,0,0,0.666666,0.623596,0)"/>
<path style="fill:none;stroke-width:1;stroke-linecap:butt;stroke-linejoin:miter;stroke:rgb(0%,0%,0%);stroke-opacity:1;stroke-miterlimit:4;" d="M 466.299035 286.593929 L 466.31081 286.593929 " transform="matrix(0.663506,0,0,0.666666,0.623596,0)"/>
<path style=" stroke:none;fill-rule:nonzero;fill:rgb(0%,0%,0%);fill-opacity:1;" d="M 19.820312 192.550781 L 20.96875 192.394531 C 21.109375 193.058594 21.339844 193.539062 21.652344 193.839844 C 21.972656 194.125 22.371094 194.269531 22.839844 194.269531 C 23.386719 194.269531 23.84375 194.082031 24.222656 193.703125 C 24.597656 193.3125 24.789062 192.835938 24.789062 192.277344 C 24.789062 191.742188 24.613281 191.300781 24.261719 190.949219 C 23.910156 190.597656 23.46875 190.421875 22.9375 190.421875 C 22.710938 190.421875 22.441406 190.46875 22.117188 190.558594 L 22.234375 189.523438 C 22.3125 189.535156 22.375 189.542969 22.429688 189.542969 C 22.921875 189.542969 23.367188 189.414062 23.753906 189.152344 C 24.15625 188.890625 24.359375 188.488281 24.359375 187.941406 C 24.359375 187.511719 24.214844 187.152344 23.929688 186.867188 C 23.644531 186.582031 23.273438 186.4375 22.820312 186.4375 C 22.363281 186.4375 21.980469 186.582031 21.671875 186.867188 C 21.367188 187.152344 21.171875 187.582031 21.085938 188.15625 L 19.9375 187.960938 C 20.078125 187.167969 20.394531 186.554688 20.890625 186.125 C 21.398438 185.695312 22.027344 185.480469 22.78125 185.480469 C 23.296875 185.480469 23.773438 185.589844 24.203125 185.8125 C 24.640625 186.035156 24.984375 186.339844 25.214844 186.730469 C 25.449219 187.121094 25.566406 187.53125 25.566406 187.960938 C 25.566406 188.378906 25.457031 188.753906 25.234375 189.09375 C 25.011719 189.433594 24.691406 189.699219 24.261719 189.894531 C 24.816406 190.023438 25.253906 190.296875 25.566406 190.714844 C 25.878906 191.117188 26.035156 191.632812 26.035156 192.257812 C 26.035156 193.089844 25.726562 193.800781 25.121094 194.386719 C 24.519531 194.960938 23.761719 195.246094 22.839844 195.246094 C 21.992188 195.246094 21.300781 195 20.753906 194.503906 C 20.207031 193.996094 19.898438 193.34375 19.820312 192.550781 Z M 19.820312 192.550781 "/>
<path style="fill:none;stroke-width:1.5;stroke-linecap:butt;stroke-linejoin:miter;stroke:rgb(75.294118%,75.294118%,75.294118%);stroke-opacity:1;stroke-miterlimit:4;" d="M 50.397319 264.603681 L 466.31081 264.603681 " transform="matrix(0.663506,0,0,0.666666,0.623596,0)"/>
<path style="fill:none;stroke-width:1;stroke-linecap:butt;stroke-linejoin:miter;stroke:rgb(0%,0%,0%);stroke-opacity:1;stroke-miterlimit:4;" d="M 466.299035 264.603681 L 466.31081 264.603681 " transform="matrix(0.663506,0,0,0.666666,0.623596,0)"/>
<path style=" stroke:none;fill-rule:nonzero;fill:rgb(0%,0%,0%);fill-opacity:1;" d="M 23.539062 180.402344 L 23.539062 178.117188 L 19.429688 178.117188 L 19.429688 177.042969 L 23.753906 170.851562 L 24.710938 170.851562 L 24.710938 177.042969 L 25.996094 177.042969 L 25.996094 178.117188 L 24.710938 178.117188 L 24.710938 180.402344 Z M 23.539062 177.042969 L 23.539062 172.726562 L 20.578125 177.042969 Z M 23.539062 177.042969 "/>
<path style="fill:none;stroke-width:1.5;stroke-linecap:butt;stroke-linejoin:miter;stroke:rgb(75.294118%,75.294118%,75.294118%);stroke-opacity:1;stroke-miterlimit:4;" d="M 50.397319 242.601714 L 466.31081 242.601714 " transform="matrix(0.663506,0,0,0.666666,0.623596,0)"/>
<path style="fill:none;stroke-width:1;stroke-linecap:butt;stroke-linejoin:miter;stroke:rgb(0%,0%,0%);stroke-opacity:1;stroke-miterlimit:4;" d="M 466.299035 242.601714 L 466.31081 242.601714 " transform="matrix(0.663506,0,0,0.666666,0.623596,0)"/>
<path style=" stroke:none;fill-rule:nonzero;fill:rgb(0%,0%,0%);fill-opacity:1;" d="M 19.800781 163.234375 L 21.027344 163.136719 C 21.113281 163.734375 21.324219 164.183594 21.652344 164.484375 C 21.988281 164.785156 22.390625 164.933594 22.859375 164.933594 C 23.414062 164.933594 23.890625 164.726562 24.28125 164.308594 C 24.671875 163.878906 24.867188 163.3125 24.867188 162.609375 C 24.867188 161.933594 24.675781 161.40625 24.300781 161.027344 C 23.921875 160.636719 23.433594 160.441406 22.839844 160.441406 C 22.460938 160.441406 22.117188 160.527344 21.804688 160.695312 C 21.503906 160.863281 21.269531 161.085938 21.105469 161.359375 L 20.011719 161.222656 L 20.929688 156.320312 L 25.664062 156.320312 L 25.664062 157.433594 L 21.863281 157.433594 L 21.359375 160.011719 C 21.929688 159.609375 22.527344 159.40625 23.152344 159.40625 C 23.980469 159.40625 24.675781 159.699219 25.234375 160.285156 C 25.804688 160.859375 26.09375 161.59375 26.09375 162.492188 C 26.09375 163.363281 25.84375 164.113281 25.351562 164.738281 C 24.738281 165.507812 23.910156 165.890625 22.859375 165.890625 C 21.988281 165.890625 21.28125 165.648438 20.734375 165.167969 C 20.1875 164.6875 19.878906 164.042969 19.800781 163.234375 Z M 19.800781 163.234375 "/>
<path style="fill:none;stroke-width:1.5;stroke-linecap:butt;stroke-linejoin:miter;stroke:rgb(75.294118%,75.294118%,75.294118%);stroke-opacity:1;stroke-miterlimit:4;" d="M 50.397319 220.599747 L 466.31081 220.599747 " transform="matrix(0.663506,0,0,0.666666,0.623596,0)"/>
<path style="fill:none;stroke-width:1;stroke-linecap:butt;stroke-linejoin:miter;stroke:rgb(0%,0%,0%);stroke-opacity:1;stroke-miterlimit:4;" d="M 466.299035 220.599747 L 466.31081 220.599747 " transform="matrix(0.663506,0,0,0.666666,0.623596,0)"/>
<path style=" stroke:none;fill-rule:nonzero;fill:rgb(0%,0%,0%);fill-opacity:1;" d="M 25.859375 143.859375 L 24.691406 143.9375 C 24.582031 143.480469 24.441406 143.148438 24.261719 142.941406 C 23.933594 142.601562 23.546875 142.433594 23.09375 142.433594 C 22.710938 142.433594 22.390625 142.539062 22.117188 142.746094 C 21.738281 143.019531 21.445312 143.417969 21.242188 143.9375 C 21.03125 144.457031 20.917969 145.195312 20.910156 146.144531 C 21.191406 145.714844 21.539062 145.394531 21.941406 145.1875 C 22.34375 144.980469 22.769531 144.875 23.230469 144.875 C 23.992188 144.875 24.652344 145.160156 25.195312 145.734375 C 25.742188 146.308594 26.015625 147.050781 26.015625 147.960938 C 26.015625 148.558594 25.882812 149.121094 25.625 149.640625 C 25.378906 150.148438 25.027344 150.539062 24.574219 150.8125 C 24.128906 151.085938 23.625 151.222656 23.054688 151.222656 C 22.078125 151.222656 21.285156 150.863281 20.675781 150.148438 C 20.0625 149.433594 19.761719 148.246094 19.761719 146.59375 C 19.761719 144.746094 20.097656 143.402344 20.773438 142.570312 C 21.359375 141.839844 22.15625 141.476562 23.171875 141.476562 C 23.910156 141.476562 24.519531 141.691406 25.003906 142.121094 C 25.480469 142.539062 25.765625 143.117188 25.859375 143.859375 Z M 21.085938 147.980469 C 21.085938 148.382812 21.167969 148.769531 21.339844 149.132812 C 21.519531 149.496094 21.757812 149.777344 22.058594 149.972656 C 22.371094 150.167969 22.691406 150.265625 23.035156 150.265625 C 23.527344 150.265625 23.949219 150.070312 24.300781 149.679688 C 24.652344 149.277344 24.828125 148.730469 24.828125 148.039062 C 24.828125 147.375 24.652344 146.855469 24.300781 146.476562 C 23.949219 146.097656 23.511719 145.910156 22.996094 145.910156 C 22.460938 145.910156 22.007812 146.097656 21.632812 146.476562 C 21.265625 146.855469 21.085938 147.355469 21.085938 147.980469 Z M 21.085938 147.980469 "/>
<path style="fill:none;stroke-width:1.5;stroke-linecap:butt;stroke-linejoin:miter;stroke:rgb(75.294118%,75.294118%,75.294118%);stroke-opacity:1;stroke-miterlimit:4;" d="M 50.397319 198.60364 L 466.31081 198.60364 " transform="matrix(0.663506,0,0,0.666666,0.623596,0)"/>
<path style="fill:none;stroke-width:1;stroke-linecap:butt;stroke-linejoin:miter;stroke:rgb(0%,0%,0%);stroke-opacity:1;stroke-miterlimit:4;" d="M 466.299035 198.60364 L 466.31081 198.60364 " transform="matrix(0.663506,0,0,0.666666,0.623596,0)"/>
<path style=" stroke:none;fill-rule:nonzero;fill:rgb(0%,0%,0%);fill-opacity:1;" d="M 19.878906 128.101562 L 19.878906 126.96875 L 26.035156 126.96875 L 26.035156 127.886719 C 25.421875 128.539062 24.816406 129.40625 24.222656 130.484375 C 23.636719 131.554688 23.179688 132.652344 22.859375 133.785156 C 22.625 134.582031 22.472656 135.453125 22.410156 136.402344 L 21.203125 136.402344 C 21.210938 135.648438 21.363281 134.742188 21.652344 133.6875 C 21.933594 132.621094 22.335938 131.59375 22.859375 130.601562 C 23.375 129.613281 23.933594 128.78125 24.535156 128.101562 Z M 19.878906 128.101562 "/>
<path style="fill:none;stroke-width:1.5;stroke-linecap:butt;stroke-linejoin:miter;stroke:rgb(75.294118%,75.294118%,75.294118%);stroke-opacity:1;stroke-miterlimit:4;" d="M 50.397319 176.496204 L 466.31081 176.496204 " transform="matrix(0.663506,0,0,0.666666,0.623596,0)"/>
<path style="fill:none;stroke-width:1;stroke-linecap:butt;stroke-linejoin:miter;stroke:rgb(0%,0%,0%);stroke-opacity:1;stroke-miterlimit:4;" d="M 466.299035 176.496204 L 466.31081 176.496204 " transform="matrix(0.663506,0,0,0.666666,0.623596,0)"/>
<path style=" stroke:none;fill-rule:nonzero;fill:rgb(0%,0%,0%);fill-opacity:1;" d="M 21.59375 116.488281 C 21.109375 116.308594 20.753906 116.054688 20.519531 115.726562 C 20.285156 115.40625 20.167969 115.003906 20.167969 114.535156 C 20.167969 113.847656 20.414062 113.265625 20.910156 112.796875 C 21.417969 112.320312 22.078125 112.074219 22.898438 112.074219 C 23.726562 112.074219 24.398438 112.320312 24.90625 112.796875 C 25.410156 113.28125 25.664062 113.871094 25.664062 114.574219 C 25.664062 115.019531 25.546875 115.40625 25.3125 115.726562 C 25.082031 116.054688 24.730469 116.308594 24.261719 116.488281 C 24.847656 116.683594 25.285156 116.996094 25.585938 117.425781 C 25.898438 117.847656 26.054688 118.34375 26.054688 118.929688 C 26.054688 119.75 25.761719 120.445312 25.175781 121 C 24.601562 121.546875 23.851562 121.820312 22.917969 121.820312 C 21.980469 121.820312 21.226562 121.546875 20.65625 121 C 20.082031 120.445312 19.800781 119.746094 19.800781 118.910156 C 19.800781 118.285156 19.953125 117.769531 20.265625 117.347656 C 20.578125 116.933594 21.015625 116.644531 21.59375 116.488281 Z M 21.359375 114.496094 C 21.359375 114.957031 21.5 115.328125 21.785156 115.609375 C 22.085938 115.898438 22.46875 116.039062 22.9375 116.039062 C 23.375 116.039062 23.742188 115.898438 24.027344 115.609375 C 24.308594 115.328125 24.457031 114.976562 24.457031 114.554688 C 24.457031 114.125 24.304688 113.769531 24.007812 113.480469 C 23.722656 113.183594 23.355469 113.03125 22.917969 113.03125 C 22.472656 113.03125 22.105469 113.179688 21.804688 113.460938 C 21.503906 113.75 21.359375 114.097656 21.359375 114.496094 Z M 20.988281 118.910156 C 20.988281 119.253906 21.066406 119.574219 21.222656 119.886719 C 21.378906 120.199219 21.613281 120.445312 21.921875 120.609375 C 22.234375 120.78125 22.570312 120.863281 22.9375 120.863281 C 23.492188 120.863281 23.953125 120.6875 24.320312 120.335938 C 24.679688 119.976562 24.867188 119.511719 24.867188 118.949219 C 24.867188 118.394531 24.675781 117.929688 24.300781 117.5625 C 23.921875 117.1875 23.453125 116.996094 22.898438 116.996094 C 22.351562 116.996094 21.894531 117.183594 21.535156 117.542969 C 21.167969 117.910156 20.988281 118.363281 20.988281 118.910156 Z M 20.988281 118.910156 "/>
<path style="fill:none;stroke-width:1.5;stroke-linecap:butt;stroke-linejoin:miter;stroke:rgb(75.294118%,75.294118%,75.294118%);stroke-opacity:1;stroke-miterlimit:4;" d="M 50.397319 154.494237 L 466.31081 154.494237 " transform="matrix(0.663506,0,0,0.666666,0.623596,0)"/>
<path style="fill:none;stroke-width:1;stroke-linecap:butt;stroke-linejoin:miter;stroke:rgb(0%,0%,0%);stroke-opacity:1;stroke-miterlimit:4;" d="M 466.299035 154.494237 L 466.31081 154.494237 " transform="matrix(0.663506,0,0,0.666666,0.623596,0)"/>
<path style=" stroke:none;fill-rule:nonzero;fill:rgb(0%,0%,0%);fill-opacity:1;" d="M 19.972656 104.789062 L 21.105469 104.691406 C 21.191406 105.214844 21.367188 105.601562 21.632812 105.84375 C 21.902344 106.078125 22.253906 106.195312 22.683594 106.195312 C 23.035156 106.195312 23.347656 106.117188 23.617188 105.960938 C 23.890625 105.796875 24.109375 105.570312 24.28125 105.296875 C 24.445312 105.015625 24.59375 104.632812 24.710938 104.164062 C 24.828125 103.695312 24.886719 103.222656 24.886719 102.738281 C 24.886719 102.691406 24.886719 102.613281 24.886719 102.503906 C 24.652344 102.886719 24.328125 103.1875 23.929688 103.421875 C 23.527344 103.648438 23.09375 103.753906 22.625 103.753906 C 21.832031 103.753906 21.164062 103.472656 20.617188 102.894531 C 20.070312 102.324219 19.800781 101.566406 19.800781 100.628906 C 19.800781 99.667969 20.082031 98.890625 20.65625 98.304688 C 21.226562 97.710938 21.941406 97.40625 22.800781 97.40625 C 23.410156 97.40625 23.96875 97.578125 24.476562 97.914062 C 24.992188 98.242188 25.382812 98.714844 25.644531 99.339844 C 25.917969 99.957031 26.054688 100.855469 26.054688 102.035156 C 26.054688 103.246094 25.917969 104.21875 25.644531 104.945312 C 25.382812 105.664062 24.992188 106.210938 24.476562 106.585938 C 23.953125 106.96875 23.347656 107.152344 22.644531 107.152344 C 21.902344 107.152344 21.300781 106.953125 20.832031 106.546875 C 20.363281 106.132812 20.078125 105.546875 19.972656 104.789062 Z M 24.75 100.570312 C 24.75 99.898438 24.5625 99.359375 24.203125 98.96875 C 23.851562 98.578125 23.429688 98.382812 22.9375 98.382812 C 22.414062 98.382812 21.960938 98.597656 21.574219 99.027344 C 21.191406 99.449219 21.007812 99.996094 21.007812 100.667969 C 21.007812 101.285156 21.1875 101.777344 21.554688 102.152344 C 21.914062 102.535156 22.363281 102.71875 22.898438 102.71875 C 23.441406 102.71875 23.882812 102.535156 24.222656 102.152344 C 24.574219 101.777344 24.75 101.25 24.75 100.570312 Z M 24.75 100.570312 "/>
<path style="fill:none;stroke-width:1.5;stroke-linecap:butt;stroke-linejoin:miter;stroke:rgb(75.294118%,75.294118%,75.294118%);stroke-opacity:1;stroke-miterlimit:4;" d="M 50.397319 132.503989 L 466.31081 132.503989 " transform="matrix(0.663506,0,0,0.666666,0.623596,0)"/>
<path style="fill:none;stroke-width:1;stroke-linecap:butt;stroke-linejoin:miter;stroke:rgb(0%,0%,0%);stroke-opacity:1;stroke-miterlimit:4;" d="M 466.299035 132.503989 L 466.31081 132.503989 " transform="matrix(0.663506,0,0,0.666666,0.623596,0)"/>
<path style=" stroke:none;fill-rule:nonzero;fill:rgb(0%,0%,0%);fill-opacity:1;" d="M 16.824219 92.335938 L 15.652344 92.335938 L 15.652344 84.855469 C 15.367188 85.128906 14.996094 85.402344 14.542969 85.675781 C 14.085938 85.949219 13.675781 86.152344 13.316406 86.28125 L 13.316406 85.148438 C 13.960938 84.835938 14.53125 84.464844 15.03125 84.035156 C 15.523438 83.59375 15.867188 83.164062 16.0625 82.746094 L 16.824219 82.746094 Z M 16.824219 92.335938 "/>
<path style=" stroke:none;fill-rule:nonzero;fill:rgb(0%,0%,0%);fill-opacity:1;" d="M 19.796875 87.628906 C 19.796875 86.496094 19.914062 85.585938 20.148438 84.894531 C 20.382812 84.203125 20.722656 83.675781 21.183594 83.3125 C 21.636719 82.933594 22.207031 82.746094 22.898438 82.746094 C 23.402344 82.746094 23.851562 82.851562 24.242188 83.058594 C 24.632812 83.265625 24.949219 83.566406 25.195312 83.957031 C 25.441406 84.335938 25.636719 84.804688 25.78125 85.363281 C 25.921875 85.921875 25.996094 86.679688 25.996094 87.628906 C 25.996094 88.75 25.878906 89.652344 25.644531 90.34375 C 25.421875 91.035156 25.085938 91.566406 24.632812 91.945312 C 24.171875 92.308594 23.597656 92.492188 22.898438 92.492188 C 21.984375 92.492188 21.265625 92.167969 20.734375 91.515625 C 20.109375 90.722656 19.796875 89.425781 19.796875 87.628906 Z M 21.007812 87.628906 C 21.007812 89.191406 21.1875 90.234375 21.550781 90.753906 C 21.914062 91.273438 22.359375 91.535156 22.898438 91.535156 C 23.429688 91.535156 23.875 91.273438 24.242188 90.753906 C 24.617188 90.234375 24.808594 89.191406 24.808594 87.628906 C 24.808594 86.054688 24.617188 85.011719 24.242188 84.503906 C 23.875 83.984375 23.429688 83.722656 22.898438 83.722656 C 22.351562 83.722656 21.921875 83.949219 21.609375 84.40625 C 21.207031 84.980469 21.007812 86.054688 21.007812 87.628906 Z M 21.007812 87.628906 "/>
<path style="fill:none;stroke-width:1.5;stroke-linecap:butt;stroke-linejoin:miter;stroke:rgb(75.294118%,75.294118%,75.294118%);stroke-opacity:1;stroke-miterlimit:4;" d="M 50.397319 110.502022 L 466.31081 110.502022 " transform="matrix(0.663506,0,0,0.666666,0.623596,0)"/>
<path style="fill:none;stroke-width:1;stroke-linecap:butt;stroke-linejoin:miter;stroke:rgb(0%,0%,0%);stroke-opacity:1;stroke-miterlimit:4;" d="M 466.299035 110.502022 L 466.31081 110.502022 " transform="matrix(0.663506,0,0,0.666666,0.623596,0)"/>
<path style=" stroke:none;fill-rule:nonzero;fill:rgb(0%,0%,0%);fill-opacity:1;" d="M 16.824219 77.667969 L 15.652344 77.667969 L 15.652344 70.1875 C 15.367188 70.460938 14.996094 70.734375 14.542969 71.007812 C 14.085938 71.28125 13.675781 71.484375 13.316406 71.613281 L 13.316406 70.480469 C 13.960938 70.167969 14.53125 69.796875 15.03125 69.367188 C 15.523438 68.925781 15.867188 68.496094 16.0625 68.078125 L 16.824219 68.078125 Z M 16.824219 77.667969 "/>
<path style=" stroke:none;fill-rule:nonzero;fill:rgb(0%,0%,0%);fill-opacity:1;" d="M 24.203125 77.667969 L 23.035156 77.667969 L 23.035156 70.1875 C 22.746094 70.460938 22.375 70.734375 21.921875 71.007812 C 21.464844 71.28125 21.054688 71.484375 20.695312 71.613281 L 20.695312 70.480469 C 21.34375 70.167969 21.914062 69.796875 22.410156 69.367188 C 22.902344 68.925781 23.246094 68.496094 23.441406 68.078125 L 24.203125 68.078125 Z M 24.203125 77.667969 "/>
<path style="fill:none;stroke-width:1.5;stroke-linecap:butt;stroke-linejoin:miter;stroke:rgb(75.294118%,75.294118%,75.294118%);stroke-opacity:1;stroke-miterlimit:4;" d="M 50.397319 88.500055 L 466.31081 88.500055 " transform="matrix(0.663506,0,0,0.666666,0.623596,0)"/>
<path style="fill:none;stroke-width:1;stroke-linecap:butt;stroke-linejoin:miter;stroke:rgb(0%,0%,0%);stroke-opacity:1;stroke-miterlimit:4;" d="M 466.299035 88.500055 L 466.31081 88.500055 " transform="matrix(0.663506,0,0,0.666666,0.623596,0)"/>
<path style=" stroke:none;fill-rule:nonzero;fill:rgb(0%,0%,0%);fill-opacity:1;" d="M 16.824219 63 L 15.652344 63 L 15.652344 55.519531 C 15.367188 55.792969 14.996094 56.066406 14.542969 56.339844 C 14.085938 56.613281 13.675781 56.816406 13.316406 56.945312 L 13.316406 55.8125 C 13.960938 55.5 14.53125 55.128906 15.03125 54.699219 C 15.523438 54.257812 15.867188 53.828125 16.0625 53.410156 L 16.824219 53.410156 Z M 16.824219 63 "/>
<path style=" stroke:none;fill-rule:nonzero;fill:rgb(0%,0%,0%);fill-opacity:1;" d="M 25.9375 61.867188 L 25.9375 63 L 19.664062 63 C 19.648438 62.714844 19.691406 62.441406 19.796875 62.179688 C 19.953125 61.75 20.207031 61.328125 20.558594 60.910156 C 20.910156 60.492188 21.414062 60.011719 22.078125 59.464844 C 23.117188 58.617188 23.816406 57.949219 24.183594 57.453125 C 24.542969 56.957031 24.730469 56.484375 24.730469 56.027344 C 24.730469 55.570312 24.558594 55.1875 24.222656 54.875 C 23.894531 54.550781 23.46875 54.386719 22.9375 54.386719 C 22.375 54.386719 21.925781 54.554688 21.589844 54.894531 C 21.25 55.234375 21.074219 55.703125 21.066406 56.300781 L 19.875 56.164062 C 19.953125 55.265625 20.257812 54.582031 20.792969 54.113281 C 21.339844 53.644531 22.058594 53.410156 22.957031 53.410156 C 23.863281 53.410156 24.582031 53.664062 25.117188 54.171875 C 25.648438 54.679688 25.917969 55.3125 25.917969 56.066406 C 25.917969 56.445312 25.839844 56.820312 25.683594 57.199219 C 25.527344 57.5625 25.265625 57.953125 24.902344 58.371094 C 24.554688 58.773438 23.953125 59.328125 23.113281 60.03125 C 22.410156 60.628906 21.960938 61.035156 21.765625 61.242188 C 21.570312 61.449219 21.40625 61.660156 21.28125 61.867188 Z M 25.9375 61.867188 "/>
<path style="fill:none;stroke-width:1.5;stroke-linecap:butt;stroke-linejoin:miter;stroke:rgb(75.294118%,75.294118%,75.294118%);stroke-opacity:1;stroke-miterlimit:4;" d="M 50.397319 66.498088 L 466.31081 66.498088 " transform="matrix(0.663506,0,0,0.666666,0.623596,0)"/>
<path style="fill:none;stroke-width:1;stroke-linecap:butt;stroke-linejoin:miter;stroke:rgb(0%,0%,0%);stroke-opacity:1;stroke-miterlimit:4;" d="M 466.299035 66.498088 L 466.31081 66.498088 " transform="matrix(0.663506,0,0,0.666666,0.623596,0)"/>
<path style=" stroke:none;fill-rule:nonzero;fill:rgb(0%,0%,0%);fill-opacity:1;" d="M 16.824219 48.335938 L 15.652344 48.335938 L 15.652344 40.855469 C 15.367188 41.128906 14.996094 41.402344 14.542969 41.675781 C 14.085938 41.949219 13.675781 42.152344 13.316406 42.28125 L 13.316406 41.148438 C 13.960938 40.835938 14.53125 40.464844 15.03125 40.035156 C 15.523438 39.59375 15.867188 39.164062 16.0625 38.746094 L 16.824219 38.746094 Z M 16.824219 48.335938 "/>
<path style=" stroke:none;fill-rule:nonzero;fill:rgb(0%,0%,0%);fill-opacity:1;" d="M 19.816406 45.816406 L 20.96875 45.660156 C 21.109375 46.324219 21.339844 46.808594 21.648438 47.105469 C 21.972656 47.394531 22.371094 47.535156 22.839844 47.535156 C 23.382812 47.535156 23.84375 47.347656 24.222656 46.96875 C 24.597656 46.578125 24.789062 46.105469 24.789062 45.542969 C 24.789062 45.011719 24.613281 44.566406 24.261719 44.214844 C 23.910156 43.863281 23.46875 43.6875 22.9375 43.6875 C 22.710938 43.6875 22.4375 43.734375 22.117188 43.824219 L 22.234375 42.789062 C 22.3125 42.804688 22.375 42.808594 22.429688 42.808594 C 22.921875 42.808594 23.363281 42.679688 23.753906 42.417969 C 24.152344 42.160156 24.359375 41.753906 24.359375 41.207031 C 24.359375 40.777344 24.210938 40.421875 23.929688 40.132812 C 23.640625 39.847656 23.273438 39.703125 22.820312 39.703125 C 22.359375 39.703125 21.980469 39.847656 21.667969 40.132812 C 21.367188 40.421875 21.171875 40.851562 21.085938 41.421875 L 19.933594 41.226562 C 20.078125 40.433594 20.394531 39.820312 20.890625 39.390625 C 21.398438 38.960938 22.023438 38.746094 22.78125 38.746094 C 23.296875 38.746094 23.773438 38.859375 24.203125 39.078125 C 24.640625 39.300781 24.980469 39.605469 25.214844 39.996094 C 25.449219 40.386719 25.566406 40.796875 25.566406 41.226562 C 25.566406 41.644531 25.453125 42.023438 25.234375 42.359375 C 25.011719 42.699219 24.691406 42.964844 24.261719 43.160156 C 24.816406 43.292969 25.253906 43.566406 25.566406 43.980469 C 25.878906 44.386719 26.035156 44.898438 26.035156 45.523438 C 26.035156 46.359375 25.726562 47.066406 25.117188 47.652344 C 24.519531 48.226562 23.757812 48.511719 22.839844 48.511719 C 21.992188 48.511719 21.300781 48.265625 20.753906 47.769531 C 20.207031 47.261719 19.894531 46.613281 19.816406 45.816406 Z M 19.816406 45.816406 "/>
<path style="fill:none;stroke-width:1.5;stroke-linecap:butt;stroke-linejoin:miter;stroke:rgb(75.294118%,75.294118%,75.294118%);stroke-opacity:1;stroke-miterlimit:4;" d="M 50.397319 44.501981 L 466.31081 44.501981 " transform="matrix(0.663506,0,0,0.666666,0.623596,0)"/>
<path style="fill:none;stroke-width:1;stroke-linecap:butt;stroke-linejoin:miter;stroke:rgb(0%,0%,0%);stroke-opacity:1;stroke-miterlimit:4;" d="M 466.299035 44.501981 L 466.31081 44.501981 " transform="matrix(0.663506,0,0,0.666666,0.623596,0)"/>
<path style=" stroke:none;fill-rule:nonzero;fill:rgb(0%,0%,0%);fill-opacity:1;" d="M 16.824219 33.667969 L 15.652344 33.667969 L 15.652344 26.1875 C 15.367188 26.460938 14.996094 26.734375 14.542969 27.007812 C 14.085938 27.28125 13.675781 27.484375 13.316406 27.613281 L 13.316406 26.480469 C 13.960938 26.167969 14.53125 25.796875 15.03125 25.367188 C 15.523438 24.925781 15.867188 24.496094 16.0625 24.078125 L 16.824219 24.078125 Z M 16.824219 33.667969 "/>
<path style=" stroke:none;fill-rule:nonzero;fill:rgb(0%,0%,0%);fill-opacity:1;" d="M 23.539062 33.667969 L 23.539062 31.382812 L 19.429688 31.382812 L 19.429688 30.308594 L 23.753906 24.117188 L 24.710938 24.117188 L 24.710938 30.308594 L 25.996094 30.308594 L 25.996094 31.382812 L 24.710938 31.382812 L 24.710938 33.667969 Z M 23.539062 30.308594 L 23.539062 25.992188 L 20.578125 30.308594 Z M 23.539062 30.308594 "/>
<path style="fill:none;stroke-width:1.5;stroke-linecap:butt;stroke-linejoin:miter;stroke:rgb(75.294118%,75.294118%,75.294118%);stroke-opacity:1;stroke-miterlimit:4;" d="M 50.397319 22.500014 L 466.31081 22.500014 " transform="matrix(0.663506,0,0,0.666666,0.623596,0)"/>
<path style="fill:none;stroke-width:1;stroke-linecap:butt;stroke-linejoin:miter;stroke:rgb(0%,0%,0%);stroke-opacity:1;stroke-miterlimit:4;" d="M 466.299035 22.500014 L 466.31081 22.500014 " transform="matrix(0.663506,0,0,0.666666,0.623596,0)"/>
<path style=" stroke:none;fill-rule:nonzero;fill:rgb(0%,0%,0%);fill-opacity:1;" d="M 16.824219 19 L 15.652344 19 L 15.652344 11.519531 C 15.367188 11.792969 14.996094 12.066406 14.542969 12.339844 C 14.085938 12.613281 13.675781 12.816406 13.316406 12.945312 L 13.316406 11.8125 C 13.960938 11.5 14.53125 11.128906 15.03125 10.699219 C 15.523438 10.257812 15.867188 9.828125 16.0625 9.410156 L 16.824219 9.410156 Z M 16.824219 19 "/>
<path style=" stroke:none;fill-rule:nonzero;fill:rgb(0%,0%,0%);fill-opacity:1;" d="M 19.796875 16.5 L 21.027344 16.402344 C 21.113281 17.003906 21.324219 17.453125 21.648438 17.75 C 21.984375 18.050781 22.390625 18.199219 22.859375 18.199219 C 23.414062 18.199219 23.890625 17.992188 24.28125 17.574219 C 24.671875 17.144531 24.867188 16.578125 24.867188 15.875 C 24.867188 15.199219 24.675781 14.671875 24.300781 14.292969 C 23.921875 13.902344 23.433594 13.707031 22.839844 13.707031 C 22.457031 13.707031 22.117188 13.792969 21.804688 13.960938 C 21.503906 14.132812 21.269531 14.351562 21.105469 14.625 L 20.011719 14.488281 L 20.929688 9.585938 L 25.664062 9.585938 L 25.664062 10.699219 L 21.863281 10.699219 L 21.359375 13.277344 C 21.925781 12.875 22.527344 12.671875 23.148438 12.671875 C 23.980469 12.671875 24.675781 12.964844 25.234375 13.550781 C 25.804688 14.125 26.09375 14.859375 26.09375 15.757812 C 26.09375 16.632812 25.84375 17.378906 25.351562 18.003906 C 24.738281 18.773438 23.910156 19.15625 22.859375 19.15625 C 21.984375 19.15625 21.28125 18.917969 20.734375 18.433594 C 20.1875 17.953125 19.875 17.308594 19.796875 16.5 Z M 19.796875 16.5 "/>
<path style="fill:none;stroke-width:4;stroke-linecap:butt;stroke-linejoin:miter;stroke:rgb(100%,0%,0%);stroke-opacity:1;stroke-miterlimit:4;" d="M 50.397319 187.500117 L 56.69672 171.896592 L 58.798482 166.798932 L 60.794273 161.601664 L 62.896036 156.498145 L 67.093674 146.302826 L 71.297199 136.295007 L 75.494837 126.498126 L 77.596599 121.699295 L 79.704249 116.900464 L 81.70004 112.300851 L 83.801803 107.701239 L 85.903565 103.195377 L 87.999441 98.701234 L 92.202966 90.099666 L 96.400603 81.896536 L 98.502366 78.000049 L 100.598241 74.097703 L 102.59992 70.400435 L 104.695795 66.796917 L 106.797558 63.304727 L 108.89932 59.894569 L 110.995195 56.695348 L 113.096958 53.595737 L 115.198721 50.601594 L 117.300483 47.701202 L 119.396358 45.000028 L 121.498121 42.503933 L 123.499799 40.101588 L 125.601562 37.798852 L 127.703325 35.695335 L 129.7992 33.697287 L 131.900962 31.898457 L 134.002725 30.298847 L 136.104487 28.798846 L 138.200363 27.398455 L 140.302125 26.197282 L 142.403888 25.201188 L 144.399679 24.398453 L 146.501442 23.701187 L 148.597317 23.097671 L 152.800842 22.500014 L 154.896717 22.500014 L 156.99848 22.599623 L 159.100242 22.904311 L 161.196117 23.402358 L 163.29788 24.000015 L 165.305446 24.79689 L 167.401321 25.699235 L 169.503084 26.800798 L 171.604846 28.10158 L 173.700721 29.501972 L 175.802484 31.095723 L 177.904246 32.794942 L 180.006009 34.69924 L 182.101884 36.703148 L 184.203647 38.900415 L 186.199438 41.30276 L 188.301201 43.798855 L 190.402963 46.40042 L 192.498838 49.195343 L 194.600601 52.095736 L 196.702363 55.101597 L 198.798239 58.300818 L 200.900001 61.593788 L 203.001764 65.003947 L 205.097639 68.595746 L 207.099318 72.199264 L 209.195193 76.002001 L 211.296955 79.898487 L 213.398718 83.900443 L 215.494593 88.002008 L 217.596356 92.197323 L 219.698118 96.498107 L 221.799881 100.898501 L 223.895756 105.404363 L 225.997519 110.003975 L 227.999197 114.603587 L 230.10096 119.29695 L 232.202722 124.10164 L 234.304485 128.900471 L 236.40036 133.798912 L 238.502123 138.802821 L 240.603885 143.795012 L 242.69976 148.798921 L 244.801523 153.896581 L 246.903285 159.000099 L 248.899077 164.203228 L 251.000839 169.300887 L 257.30024 184.898553 L 259.396115 190.201291 L 265.695515 205.804816 L 267.797278 210.902476 L 269.804844 216.099744 L 274.002481 226.295063 L 278.200119 236.302882 L 280.301882 241.295073 L 282.403644 246.205232 L 286.601282 255.797035 L 288.703045 260.502116 L 290.698836 265.101728 L 292.800598 269.70134 L 294.902361 274.195484 L 296.998236 278.595877 L 299.099999 282.896661 L 301.201761 287.103695 L 303.297637 291.20526 L 305.399399 295.201356 L 307.501162 299.097843 L 309.597037 302.90058 L 311.598715 306.498238 L 313.694591 310.101756 L 315.796353 313.500196 L 317.898116 316.799026 L 319.993991 320.004106 L 322.095754 322.998249 L 324.197516 325.898641 L 326.299279 328.705284 L 328.395154 331.295129 L 330.496916 333.802943 L 332.498595 336.205288 L 334.600358 338.402555 L 336.70212 340.400603 L 338.803883 342.299042 L 340.899758 343.998262 L 343.00152 345.597872 L 345.103283 346.998264 L 347.199158 348.304905 L 349.300921 349.400609 L 351.402683 350.302953 L 353.398475 351.099829 L 355.500237 351.703345 L 357.596112 352.201392 L 359.697875 352.50022 L 361.799637 352.59983 L 363.895513 352.59983 L 368.099038 352.002173 L 370.2008 351.398657 L 372.296675 350.695532 L 374.304241 349.898656 L 376.400117 348.896702 L 378.501879 347.701389 L 380.603642 346.295138 L 382.699517 344.800997 L 384.801279 343.195527 L 386.903042 341.396698 L 389.004805 339.39865 L 391.10068 337.300992 L 393.202442 335.004116 L 395.198234 332.60177 L 397.299996 330.099816 L 399.401759 327.398642 L 401.497634 324.49825 L 403.599397 321.498248 L 405.701159 318.398636 L 407.797034 315.199416 L 409.898797 311.800976 L 412.000559 308.297068 L 414.096435 304.699409 L 416.098113 301.002141 L 418.193988 297.099795 L 420.295751 293.203308 L 422.403401 289.101743 L 424.505163 285.000178 L 428.702801 276.39861 L 432.906326 267.398605 L 435.002201 262.798992 L 436.997993 258.19938 L 439.099755 253.400549 L 441.201518 248.595858 L 445.399156 238.798977 L 447.500918 233.795068 L 449.602681 228.802877 L 451.698556 223.705218 L 453.800318 218.59584 L 455.902081 213.49818 L 457.897872 208.300911 L 459.999635 203.203252 L 464.197273 192.802855 L 466.299035 187.500117 L 466.31081 187.500117 " transform="matrix(0.663506,0,0,0.666666,0.623596,0)"/>
<path style="fill:none;stroke-width:1.5;stroke-linecap:butt;stroke-linejoin:miter;stroke:rgb(49.803922%,49.803922%,49.803922%);stroke-opacity:1;stroke-miterlimit:4;" d="M 66.999477 176.496204 L 66.999477 154.494237 M 83.695832 176.496204 L 83.695832 110.502022 M 100.297989 176.496204 L 100.297989 66.498088 M 116.900147 176.496204 L 116.900147 44.501981 M 133.596502 176.496204 L 133.596502 22.500014 M 150.19866 176.496204 L 150.19866 22.500014 M 166.895014 176.496204 L 166.895014 22.500014 M 183.497172 176.496204 L 183.497172 44.501981 M 200.09933 176.496204 L 200.09933 66.498088 M 216.795684 176.496204 L 216.795684 88.500055 M 233.397842 176.496204 L 233.397842 132.503989 M 266.696354 176.496204 L 266.696354 198.60364 M 283.298512 176.496204 L 283.298512 242.601714 M 299.90067 176.496204 L 299.90067 286.593929 M 316.597025 176.496204 L 316.597025 308.595896 M 333.199183 176.496204 L 333.199183 330.597863 M 349.80134 176.496204 L 349.80134 352.59983 M 366.497695 176.496204 L 366.497695 352.59983 M 383.099853 176.496204 L 383.099853 352.59983 M 399.802094 176.496204 L 399.802094 330.597863 M 416.398365 176.496204 L 416.398365 308.595896 M 433.000523 176.496204 L 433.000523 264.603681 M 449.702765 176.496204 L 449.702765 220.599747 M 466.299035 176.496204 L 466.299035 198.60364 L 466.31081 198.60364 " transform="matrix(0.663506,0,0,0.666666,0.623596,0)"/>
<path style=" stroke:none;fill-rule:nonzero;fill:rgb(0%,0%,100%);fill-opacity:1;" d="M 37.25 117.664062 C 37.25 119.433594 35.824219 120.863281 34.0625 120.863281 C 32.304688 120.863281 30.878906 119.433594 30.878906 117.664062 C 30.878906 115.898438 32.304688 114.46875 34.0625 114.46875 C 35.824219 114.46875 37.25 115.898438 37.25 117.664062 Z M 37.25 117.664062 "/>
<path style=" stroke:none;fill-rule:nonzero;fill:rgb(0%,0%,100%);fill-opacity:1;" d="M 48.265625 103 C 48.265625 104.765625 46.835938 106.203125 45.078125 106.203125 C 43.320312 106.203125 41.894531 104.765625 41.894531 103 C 41.894531 101.230469 43.320312 99.800781 45.078125 99.800781 C 46.835938 99.800781 48.265625 101.230469 48.265625 103 Z M 48.265625 103 "/>
<path style=" stroke:none;fill-rule:nonzero;fill:rgb(0%,0%,100%);fill-opacity:1;" d="M 59.34375 73.667969 C 59.34375 75.433594 57.917969 76.867188 56.15625 76.867188 C 54.398438 76.867188 52.976562 75.433594 52.976562 73.667969 C 52.976562 71.898438 54.398438 70.46875 56.15625 70.46875 C 57.917969 70.46875 59.34375 71.898438 59.34375 73.667969 Z M 59.34375 73.667969 "/>
<path style=" stroke:none;fill-rule:nonzero;fill:rgb(0%,0%,100%);fill-opacity:1;" d="M 70.359375 44.332031 C 70.359375 46.097656 68.933594 47.535156 67.171875 47.535156 C 65.414062 47.535156 63.988281 46.097656 63.988281 44.332031 C 63.988281 42.570312 65.414062 41.132812 67.171875 41.132812 C 68.933594 41.132812 70.359375 42.570312 70.359375 44.332031 Z M 70.359375 44.332031 "/>
<path style=" stroke:none;fill-rule:nonzero;fill:rgb(0%,0%,100%);fill-opacity:1;" d="M 81.375 29.667969 C 81.375 31.4375 79.945312 32.867188 78.1875 32.867188 C 76.429688 32.867188 75.003906 31.4375 75.003906 29.667969 C 75.003906 27.898438 76.429688 26.464844 78.1875 26.464844 C 79.945312 26.464844 81.375 27.898438 81.375 29.667969 Z M 81.375 29.667969 "/>
<path style=" stroke:none;fill-rule:nonzero;fill:rgb(0%,0%,100%);fill-opacity:1;" d="M 92.453125 15 C 92.453125 16.765625 91.027344 18.199219 89.265625 18.199219 C 87.507812 18.199219 86.085938 16.765625 86.085938 15 C 86.085938 13.234375 87.507812 11.800781 89.265625 11.800781 C 91.027344 11.800781 92.453125 13.234375 92.453125 15 Z M 92.453125 15 "/>
<path style=" stroke:none;fill-rule:nonzero;fill:rgb(0%,0%,100%);fill-opacity:1;" d="M 103.46875 15 C 103.46875 16.765625 102.039062 18.199219 100.28125 18.199219 C 98.523438 18.199219 97.097656 16.765625 97.097656 15 C 97.097656 13.234375 98.523438 11.800781 100.28125 11.800781 C 102.039062 11.800781 103.46875 13.234375 103.46875 15 Z M 103.46875 15 "/>
<path style=" stroke:none;fill-rule:nonzero;fill:rgb(0%,0%,100%);fill-opacity:1;" d="M 114.546875 15 C 114.546875 16.765625 113.121094 18.199219 111.359375 18.199219 C 109.601562 18.199219 108.179688 16.765625 108.179688 15 C 108.179688 13.234375 109.601562 11.800781 111.359375 11.800781 C 113.121094 11.800781 114.546875 13.234375 114.546875 15 Z M 114.546875 15 "/>
<path style=" stroke:none;fill-rule:nonzero;fill:rgb(0%,0%,100%);fill-opacity:1;" d="M 125.5625 29.667969 C 125.5625 31.4375 124.132812 32.867188 122.375 32.867188 C 120.617188 32.867188 119.195312 31.4375 119.195312 29.667969 C 119.195312 27.898438 120.617188 26.464844 122.375 26.464844 C 124.132812 26.464844 125.5625 27.898438 125.5625 29.667969 Z M 125.5625 29.667969 "/>
<path style=" stroke:none;fill-rule:nonzero;fill:rgb(0%,0%,100%);fill-opacity:1;" d="M 136.578125 44.332031 C 136.578125 46.097656 135.148438 47.535156 133.390625 47.535156 C 131.632812 47.535156 130.203125 46.097656 130.203125 44.332031 C 130.203125 42.570312 131.632812 41.132812 133.390625 41.132812 C 135.148438 41.132812 136.578125 42.570312 136.578125 44.332031 Z M 136.578125 44.332031 "/>
<path style=" stroke:none;fill-rule:nonzero;fill:rgb(0%,0%,100%);fill-opacity:1;" d="M 147.65625 59 C 147.65625 60.765625 146.226562 62.203125 144.46875 62.203125 C 142.710938 62.203125 141.289062 60.765625 141.289062 59 C 141.289062 57.230469 142.710938 55.800781 144.46875 55.800781 C 146.226562 55.800781 147.65625 57.230469 147.65625 59 Z M 147.65625 59 "/>
<path style=" stroke:none;fill-rule:nonzero;fill:rgb(0%,0%,100%);fill-opacity:1;" d="M 158.671875 88.335938 C 158.671875 90.101562 157.242188 91.53125 155.484375 91.53125 C 153.726562 91.53125 152.296875 90.101562 152.296875 88.335938 C 152.296875 86.566406 153.726562 85.132812 155.484375 85.132812 C 157.242188 85.132812 158.671875 86.566406 158.671875 88.335938 Z M 158.671875 88.335938 "/>
<path style=" stroke:none;fill-rule:nonzero;fill:rgb(0%,0%,100%);fill-opacity:1;" d="M 169.6875 117.664062 C 169.6875 119.433594 168.257812 120.863281 166.5 120.863281 C 164.742188 120.863281 163.3125 119.433594 163.3125 117.664062 C 163.3125 115.898438 164.742188 114.46875 166.5 114.46875 C 168.257812 114.46875 169.6875 115.898438 169.6875 117.664062 Z M 169.6875 117.664062 "/>
<path style=" stroke:none;fill-rule:nonzero;fill:rgb(0%,0%,100%);fill-opacity:1;" d="M 180.765625 132.402344 C 180.765625 134.164062 179.335938 135.601562 177.578125 135.601562 C 175.820312 135.601562 174.398438 134.164062 174.398438 132.402344 C 174.398438 130.632812 175.820312 129.199219 177.578125 129.199219 C 179.335938 129.199219 180.765625 130.632812 180.765625 132.402344 Z M 180.765625 132.402344 "/>
<path style=" stroke:none;fill-rule:nonzero;fill:rgb(0%,0%,100%);fill-opacity:1;" d="M 191.78125 161.734375 C 191.78125 163.5 190.351562 164.929688 188.59375 164.929688 C 186.835938 164.929688 185.40625 163.5 185.40625 161.734375 C 185.40625 159.964844 186.835938 158.535156 188.59375 158.535156 C 190.351562 158.535156 191.78125 159.964844 191.78125 161.734375 Z M 191.78125 161.734375 "/>
<path style=" stroke:none;fill-rule:nonzero;fill:rgb(0%,0%,100%);fill-opacity:1;" d="M 202.796875 191.0625 C 202.796875 192.832031 201.367188 194.265625 199.609375 194.265625 C 197.851562 194.265625 196.421875 192.832031 196.421875 191.0625 C 196.421875 189.300781 197.851562 187.867188 199.609375 187.867188 C 201.367188 187.867188 202.796875 189.300781 202.796875 191.0625 Z M 202.796875 191.0625 "/>
<path style=" stroke:none;fill-rule:nonzero;fill:rgb(0%,0%,100%);fill-opacity:1;" d="M 213.875 205.734375 C 213.875 207.5 212.445312 208.9375 210.6875 208.9375 C 208.929688 208.9375 207.507812 207.5 207.507812 205.734375 C 207.507812 203.964844 208.929688 202.535156 210.6875 202.535156 C 212.445312 202.535156 213.875 203.964844 213.875 205.734375 Z M 213.875 205.734375 "/>
<path style=" stroke:none;fill-rule:nonzero;fill:rgb(0%,0%,100%);fill-opacity:1;" d="M 224.890625 220.398438 C 224.890625 222.167969 223.460938 223.597656 221.703125 223.597656 C 219.945312 223.597656 218.515625 222.167969 218.515625 220.398438 C 218.515625 218.632812 219.945312 217.203125 221.703125 217.203125 C 223.460938 217.203125 224.890625 218.632812 224.890625 220.398438 Z M 224.890625 220.398438 "/>
<path style=" stroke:none;fill-rule:nonzero;fill:rgb(0%,0%,100%);fill-opacity:1;" d="M 235.902344 235.070312 C 235.902344 236.835938 234.476562 238.265625 232.71875 238.265625 C 230.960938 238.265625 229.53125 236.835938 229.53125 235.070312 C 229.53125 233.300781 230.960938 231.867188 232.71875 231.867188 C 234.476562 231.867188 235.902344 233.300781 235.902344 235.070312 Z M 235.902344 235.070312 "/>
<path style=" stroke:none;fill-rule:nonzero;fill:rgb(0%,0%,100%);fill-opacity:1;" d="M 246.984375 235.070312 C 246.984375 236.835938 245.554688 238.265625 243.796875 238.265625 C 242.039062 238.265625 240.617188 236.835938 240.617188 235.070312 C 240.617188 233.300781 242.039062 231.867188 243.796875 231.867188 C 245.554688 231.867188 246.984375 233.300781 246.984375 235.070312 Z M 246.984375 235.070312 "/>
<path style=" stroke:none;fill-rule:nonzero;fill:rgb(0%,0%,100%);fill-opacity:1;" d="M 257.996094 235.070312 C 257.996094 236.835938 256.570312 238.265625 254.8125 238.265625 C 253.054688 238.265625 251.625 236.835938 251.625 235.070312 C 251.625 233.300781 253.054688 231.867188 254.8125 231.867188 C 256.570312 231.867188 257.996094 233.300781 257.996094 235.070312 Z M 257.996094 235.070312 "/>
<path style=" stroke:none;fill-rule:nonzero;fill:rgb(0%,0%,100%);fill-opacity:1;" d="M 269.078125 220.398438 C 269.078125 222.167969 267.652344 223.597656 265.894531 223.597656 C 264.136719 223.597656 262.710938 222.167969 262.710938 220.398438 C 262.710938 218.632812 264.136719 217.203125 265.894531 217.203125 C 267.652344 217.203125 269.078125 218.632812 269.078125 220.398438 Z M 269.078125 220.398438 "/>
<path style=" stroke:none;fill-rule:nonzero;fill:rgb(0%,0%,100%);fill-opacity:1;" d="M 280.09375 205.734375 C 280.09375 207.5 278.664062 208.9375 276.90625 208.9375 C 275.148438 208.9375 273.722656 207.5 273.722656 205.734375 C 273.722656 203.964844 275.148438 202.535156 276.90625 202.535156 C 278.664062 202.535156 280.09375 203.964844 280.09375 205.734375 Z M 280.09375 205.734375 "/>
<path style=" stroke:none;fill-rule:nonzero;fill:rgb(0%,0%,100%);fill-opacity:1;" d="M 291.105469 176.402344 C 291.105469 178.167969 289.679688 179.601562 287.921875 179.601562 C 286.164062 179.601562 284.734375 178.167969 284.734375 176.402344 C 284.734375 174.632812 286.164062 173.199219 287.921875 173.199219 C 289.679688 173.199219 291.105469 174.632812 291.105469 176.402344 Z M 291.105469 176.402344 "/>
<path style=" stroke:none;fill-rule:nonzero;fill:rgb(0%,0%,100%);fill-opacity:1;" d="M 302.1875 147.066406 C 302.1875 148.832031 300.761719 150.269531 299.003906 150.269531 C 297.246094 150.269531 295.816406 148.832031 295.816406 147.066406 C 295.816406 145.296875 297.246094 143.867188 299.003906 143.867188 C 300.761719 143.867188 302.1875 145.296875 302.1875 147.066406 Z M 302.1875 147.066406 "/>
<path style=" stroke:none;fill-rule:nonzero;fill:rgb(0%,0%,100%);fill-opacity:1;" d="M 313.199219 132.402344 C 313.199219 134.164062 311.773438 135.601562 310.015625 135.601562 C 308.257812 135.601562 306.832031 134.164062 306.832031 132.402344 C 306.832031 130.632812 308.257812 129.199219 310.015625 129.199219 C 311.773438 129.199219 313.199219 130.632812 313.199219 132.402344 Z M 313.199219 132.402344 "/>
</g>
</svg>
